<svg width="24" height="24" viewBox="0 0 24 24" fill="none" xmlns="http://www.w3.org/2000/svg">
<path d="M14.0499 3.02996C14.0173 3.01039 13.991 2.98193 13.974 2.94791L13.0553 1.11056C13.0214 1.0428 12.9521 1 12.8764 1H11.1236C11.0479 1 10.9786 1.0428 10.9447 1.11056L10.026 2.94791C10.009 2.98193 9.98268 3.01039 9.95006 3.02996L5.61916 5.6285C5.44523 5.73286 5.51922 6 5.72206 6H7L7.99149 13.9319C7.99701 13.976 8.01707 14.0171 8.04852 14.0485L9.97705 15.9771C9.99225 15.9923 10.0049 16.0098 10.0145 16.029L10.5 17H9.2C9.08954 17 9 17.0895 9 17.2V23H15V17.2C15 17.0895 14.9105 17 14.8 17H13.5L13.9855 16.029C13.9951 16.0098 14.0077 15.9923 14.0229 15.9771L15.9515 14.0485C15.9829 14.0171 16.003 13.976 16.0085 13.9319L17 6H18.2779C18.4808 6 18.5548 5.73286 18.3808 5.6285L14.0499 3.02996ZM14.1811 12.8238C14.1691 12.9243 14.0838 13 13.9826 13H10.0174C9.91619 13 9.83092 12.9243 9.81886 12.8238L9 6H15L14.1811 12.8238Z" fill="#0F186C"/>
</svg>
