<svg width="24" height="24" viewBox="0 0 24 24" fill="none" xmlns="http://www.w3.org/2000/svg">
<path d="M6 19.5C6 19.5 5.00152 17 5.50152 15C6.00152 13 8.5 11 9 9C9.5 7 8.00015 5 8.00015 5M15.9996 5C15.9996 5 17.5 7.5 17.5 9.5C17.5 11.5 15.5 13 15.5 15C15.5 17 18.5001 19 18.5001 19" stroke="#0F186C" stroke-width="2" stroke-linecap="round" stroke-linejoin="round"/>
<circle cx="7.75" cy="16.75" r="0.75" fill="#0F186C"/>
<circle cx="10.75" cy="16.75" r="0.75" fill="#0F186C"/>
<circle cx="14.75" cy="18.75" r="0.75" fill="#0F186C"/>
<circle cx="14.75" cy="16.75" r="0.75" fill="#0F186C"/>
<circle cx="7.75" cy="13.75" r="0.75" fill="#0F186C"/>
<circle cx="15.75" cy="8.75" r="0.75" fill="#0F186C"/>
<circle cx="14.75" cy="10.75" r="0.75" fill="#0F186C"/>
<circle cx="13.75" cy="6.75" r="0.75" fill="#0F186C"/>
</svg>
