<svg width="64" height="64" viewBox="0 0 64 64" fill="none" xmlns="http://www.w3.org/2000/svg">
<rect width="64" height="64" rx="32" fill="#F5F5F5"/>
<path d="M25 33C24.7167 33 24.479 32.904 24.287 32.712C24.095 32.52 23.9993 32.2827 24 32C24 31.7167 24.096 31.479 24.288 31.287C24.48 31.095 24.7173 30.9993 25 31H39C39.2833 31 39.521 31.096 39.713 31.288C39.905 31.48 40.0007 31.7173 40 32C40 32.2833 39.904 32.521 39.712 32.713C39.52 32.905 39.2827 33.0007 39 33H25ZM28 29C26.9 29 25.9583 28.6083 25.175 27.825C24.3917 27.0417 24 26.1 24 25V17C24 16.45 24.196 15.979 24.588 15.587C24.98 15.195 25.4507 14.9993 26 15H40C40.55 15 41.021 15.196 41.413 15.588C41.805 15.98 42.0007 16.4507 42 17V20C42 20.55 41.804 21.021 41.412 21.413C41.02 21.805 40.5493 22.0007 40 22H38V25C38 26.1 37.6083 27.0417 36.825 27.825C36.0417 28.6083 35.1 29 34 29H28ZM38 20H40V17H38V20Z" fill="#757575"/>
<path d="M27.6935 41.2058H23.2343V42.1706H26.5008C26.4667 42.6758 26.3907 43.1544 26.2653 43.6102L22.7291 43.8343L22.8848 44.8598L25.9045 44.5787C25.3385 45.7296 24.3358 46.702 22.6493 47.5338L23.3064 48.4302C26.8883 46.6526 27.6897 44.1343 27.6935 41.2058ZM29.0533 49.9344H30.2498V45.0269H31.6894V44.0432H30.2498V40.2486H29.0533V49.9344ZM40.9295 40.2486H39.7824V49.9496H40.9295V40.2486ZM32.387 46.683L32.5237 47.6706C33.7544 47.6706 35.7523 47.6326 37.2869 47.3173L37.2071 46.4551C36.9336 46.4931 36.6449 46.5235 36.3411 46.5501V42.3643H37.0248V41.3995H32.5807V42.3643H33.2644V46.6792C32.9454 46.683 32.6491 46.683 32.387 46.683ZM34.3356 46.6564V42.3643H35.2472V46.6222C34.9433 46.6374 34.6356 46.6488 34.3356 46.6564ZM36.7817 44.9016H37.8566V49.471H38.9885V40.4537H37.8566V43.8343H36.7817V44.9016Z" fill="#757575"/>
</svg>
