<svg width="64" height="64" viewBox="0 0 64 64" fill="none" xmlns="http://www.w3.org/2000/svg">
<rect width="64" height="64" rx="32" fill="#F5F5F5"/>
<path d="M37 26V33M27 26V33M37 15V18M27 15V18M22.5 18.5L30 26M28 18L36 26M34 18L41.5 25.5M41 18H23C22.7348 18 22.4804 18.1054 22.2929 18.2929C22.1054 18.4804 22 18.7348 22 19V25C22 25.2652 22.1054 25.5196 22.2929 25.7071C22.4804 25.8946 22.7348 26 23 26H41C41.2652 26 41.5196 25.8946 41.7071 25.7071C41.8946 25.5196 42 25.2652 42 25V19C42 18.7348 41.8946 18.4804 41.7071 18.2929C41.5196 18.1054 41.2652 18 41 18Z" stroke="#757575" stroke-width="2" stroke-linecap="round" stroke-linejoin="round"/>
<path d="M27.0174 46.3184C24.9245 46.3222 23.5837 46.9869 23.5837 48.1378C23.5837 49.2697 24.9245 49.9458 27.0174 49.942C29.1293 49.9458 30.4587 49.2697 30.4663 48.1378C30.4587 46.9869 29.1293 46.3222 27.0174 46.3184ZM22.6645 45.6119H31.4767V44.6433H27.2605V42.8847H26.0792V44.6433H22.6645V45.6119ZM23.6749 41.6502H29.2129C29.2091 42.3567 29.1939 43.0366 28.9546 43.9786L30.1321 44.0963C30.4055 43.0974 30.4055 42.2807 30.4055 41.5097V40.7044H23.6749V41.6502ZM24.7764 48.1378C24.7688 47.549 25.6158 47.2186 27.0174 47.2148C28.4266 47.2186 29.2736 47.549 29.2774 48.1378C29.2736 48.7113 28.4266 49.0228 27.0174 49.0228C25.6158 49.0228 24.7688 48.7113 24.7764 48.1378ZM35.9612 42.5808V41.0273H34.7686V42.5808C34.761 44.3698 33.8722 46.2272 32.3072 46.9641L33.0441 47.9289C34.1532 47.3705 34.9471 46.2728 35.3763 44.9548C35.7903 46.1892 36.5424 47.2148 37.5983 47.7465L38.3238 46.7894C36.8235 46.0639 35.9536 44.309 35.9612 42.5808ZM38.9012 49.9496H40.0976V45.0687H41.5942V44.0546H40.0976V40.2486H38.9012V49.9496Z" fill="#757575"/>
</svg>
