<svg width="64" height="64" viewBox="0 0 64 64" fill="none" xmlns="http://www.w3.org/2000/svg">
<rect width="64" height="64" rx="32" fill="#F5F5F5"/>
<path d="M28.0248 30H31.0248V29H29.0248V28H31.0248V25H28.0248V26H30.0248V27H28.0248V30ZM35.0248 30H36.0248V25H35.0248V27H34.0248V25H33.0248V28H35.0248V30ZM41.0248 23.05V31C41.0248 31.55 40.8288 32.021 40.4368 32.413C40.0448 32.805 39.5745 33.0007 39.0258 33H25.0258C24.4758 33 24.0048 32.804 23.6128 32.412C23.2208 32.02 23.0251 31.5493 23.0258 31V23.05C22.6425 22.7 22.3468 22.25 22.1388 21.7C21.9308 21.15 21.9265 20.55 22.1258 19.9L23.1758 16.5C23.3091 16.0667 23.5468 15.7083 23.8888 15.425C24.2308 15.1417 24.6258 15 25.0738 15H38.9738C39.4238 15 39.8155 15.1377 40.1488 15.413C40.4821 15.6883 40.7238 16.0507 40.8738 16.5L41.9238 19.9C42.1238 20.55 42.1198 21.1417 41.9118 21.675C41.7038 22.2083 41.4088 22.6667 41.0248 23.05ZM34.2248 22C34.6748 22 35.0165 21.8457 35.2498 21.537C35.4831 21.2283 35.5748 20.8827 35.5248 20.5L34.9748 17H33.0248V20.7C33.0248 21.05 33.1415 21.3543 33.3748 21.613C33.6081 21.8717 33.8915 22.0007 34.2248 22ZM29.7248 22C30.1081 22 30.4205 21.8707 30.6618 21.612C30.9031 21.3533 31.0241 21.0493 31.0248 20.7V17H29.0748L28.5248 20.5C28.4581 20.9 28.5455 21.25 28.7868 21.55C29.0281 21.85 29.3408 22 29.7248 22ZM25.2748 22C25.5748 22 25.8371 21.8917 26.0618 21.675C26.2865 21.4583 26.4241 21.1833 26.4748 20.85L27.0248 17H25.0748L24.0748 20.35C23.9748 20.6833 24.0288 21.0417 24.2368 21.425C24.4448 21.8083 24.7908 22 25.2748 22ZM38.7748 22C39.2581 22 39.6081 21.8083 39.8248 21.425C40.0415 21.0417 40.0915 20.6833 39.9748 20.35L38.9248 17H37.0248L37.5748 20.85C37.6248 21.1833 37.7625 21.4583 37.9878 21.675C38.2131 21.8917 38.4755 22 38.7748 22ZM25.0248 31H39.0248V23.95C38.9415 23.9833 38.8875 24 38.8628 24H38.7748C38.3248 24 37.9291 23.925 37.5878 23.775C37.2465 23.625 36.9088 23.3833 36.5748 23.05C36.2748 23.35 35.9331 23.5833 35.5498 23.75C35.1665 23.9167 34.7581 24 34.3248 24C33.8748 24 33.4538 23.9167 33.0618 23.75C32.6698 23.5833 32.3241 23.35 32.0248 23.05C31.7415 23.35 31.4121 23.5833 31.0368 23.75C30.6615 23.9167 30.2575 24 29.8248 24C29.3415 24 28.9041 23.9167 28.5128 23.75C28.1215 23.5833 27.7755 23.35 27.4748 23.05C27.1248 23.4 26.7791 23.646 26.4378 23.788C26.0965 23.93 25.7085 24.0007 25.2738 24H25.1608C25.1195 24 25.0738 23.9833 25.0238 23.95L25.0248 31Z" fill="#757575"/>
<path d="M25.8539 40.2486H24.6612V42.0035H23.2862V42.9682H24.6612V43.8988H23.2862V44.8902H24.6612V47.4199H25.8539V40.2486ZM17.7292 45.1599L17.8621 46.1474C19.4081 46.1436 21.5617 46.1057 23.4001 45.8132L23.3507 44.9358C23.0089 44.9738 22.6481 45.0041 22.2834 45.0307V41.9351H23.1418V40.9703H17.9837V41.9351H18.8307V45.1523C18.4433 45.1561 18.0711 45.1599 17.7292 45.1599ZM19.4688 49.7673H26.0932V48.7987H20.6729V46.8615H19.4688V49.7673ZM19.9892 45.1333V41.9351H21.1401V45.0953C20.7527 45.1143 20.3691 45.1257 19.9892 45.1333ZM30.7183 40.9171C29.1913 40.9171 28.048 41.8857 28.0518 43.2645C28.048 44.6471 29.1913 45.6119 30.7183 45.6119C32.2566 45.6119 33.3809 44.6471 33.3847 43.2645C33.3809 41.8857 32.2566 40.9171 30.7183 40.9171ZM27.615 46.9527L27.7594 47.9365C29.4762 47.9365 31.8046 47.9213 33.9772 47.5035L33.8861 46.6374C31.7856 46.9375 29.3661 46.9565 27.615 46.9527ZM29.2369 43.2645C29.2293 42.4593 29.8674 41.9541 30.7183 41.9541C31.5805 41.9541 32.2186 42.4593 32.2186 43.2645C32.2186 44.0773 31.5767 44.5749 30.7183 44.5749C29.8674 44.5749 29.2293 44.0773 29.2369 43.2645ZM34.4634 49.9724H35.6561V40.2486H34.4634V49.9724ZM45.5495 40.2486H44.3568V42.5504H42.678V43.5304H44.3568V45.8854H45.5495V40.2486ZM37.3945 44.9168L38.0098 45.8588C39.1569 45.4713 39.966 44.6585 40.3914 43.6405C40.8168 44.5597 41.5841 45.3004 42.6704 45.6689L43.2667 44.7269C41.7664 44.2141 40.9839 43.01 40.9839 41.8439V41.7566H42.9932V40.788H37.7439V41.7566H39.7685V41.8363C39.7685 43.1202 38.9404 44.404 37.3945 44.9168ZM39.0885 49.8356H45.5495V46.307H39.0885V49.8356ZM40.2812 48.8709V47.2528H44.3796V48.8709H40.2812Z" fill="#757575"/>
</svg>
