<svg width="64" height="64" viewBox="0 0 64 64" fill="none" xmlns="http://www.w3.org/2000/svg">
<rect width="64" height="64" rx="32" fill="#F5F5F5"/>
<path d="M38 29H26" stroke="#757575" stroke-width="2" stroke-linecap="round" stroke-linejoin="round"/>
<path d="M41 25H23" stroke="#757575" stroke-width="2" stroke-linecap="round" stroke-linejoin="round"/>
<path d="M28.0658 40.9209H22.9076V41.8857H23.7546V44.7762C23.3672 44.78 22.995 44.7838 22.6531 44.7838L22.7861 45.7638C24.332 45.7638 26.4781 45.7258 28.324 45.4258L28.2785 44.6281H29.5851V46.2006H30.7778V40.2486H29.5851V41.8819H28.2481V42.8315H29.5851V43.6709H28.2481V44.5445C27.9138 44.5825 27.5644 44.6167 27.2073 44.6433V41.8857H28.0658V40.9209ZM24.1877 48.1644C24.1839 49.2811 25.4297 49.9458 27.4922 49.942C29.5623 49.9458 30.8044 49.2811 30.8044 48.1644C30.8044 47.0173 29.5623 46.3677 27.4922 46.364C25.4297 46.3677 24.1839 47.0173 24.1877 48.1644ZM24.9131 44.7573V41.8857H26.064V44.7155C25.6766 44.7345 25.293 44.7459 24.9131 44.7573ZM25.3765 48.1644C25.3689 47.5832 26.1324 47.2831 27.4922 47.2831C28.8558 47.2831 29.6155 47.5832 29.6193 48.1644C29.6155 48.7265 28.8558 49.0228 27.4922 49.0228C26.1324 49.0228 25.3689 48.7265 25.3765 48.1644ZM36.1588 43.0024V42.1858H38.2782V41.2058H32.8048V42.1858H34.9433V43.0024C34.9357 44.6585 33.9823 46.4665 32.4478 47.1692L33.1353 48.1112C34.2748 47.5718 35.1256 46.4513 35.57 45.1181C36.0144 46.3526 36.8577 47.3705 38.0048 47.8681L38.6543 46.9261C37.0932 46.2728 36.1588 44.5977 36.1588 43.0024ZM39.3684 49.9496H40.5724V40.2486H39.3684V49.9496Z" fill="#757575"/>
</svg>
