<svg width="64" height="64" viewBox="0 0 64 64" fill="none" xmlns="http://www.w3.org/2000/svg">
<rect width="64" height="64" rx="32" fill="#F5F5F5"/>
<path d="M38 29H26" stroke="#757575" stroke-width="2" stroke-linecap="round" stroke-linejoin="round"/>
<path d="M41 25H37C37 25 36.5 21 32 21C27.5 21 27 25 27 25H23" stroke="#757575" stroke-width="2" stroke-linecap="round" stroke-linejoin="round"/>
<path d="M30.7778 40.2562H29.5851V42.8543H27.8455C27.6365 41.6616 26.611 40.8564 25.3385 40.8564C23.8762 40.8564 22.7709 41.8629 22.7785 43.2949C22.7709 44.7193 23.8762 45.7486 25.3385 45.7486C26.5768 45.7486 27.5834 44.97 27.8265 43.8267H29.5851V47.3705H30.7778V40.2562ZM23.9142 43.2949C23.9142 42.4365 24.5257 41.9009 25.3385 41.9009C26.1362 41.9009 26.7439 42.4365 26.7439 43.2949C26.7439 44.1495 26.1362 44.7117 25.3385 44.7155C24.5257 44.7117 23.9142 44.1495 23.9142 43.2949ZM24.408 49.7673H31.0209V48.7987H25.6006V46.6526H24.408V49.7673ZM37.4464 40.9019H33.0175V45.722H33.7696C35.7599 45.7258 36.8159 45.6916 38.0199 45.422L37.906 44.4648C36.8311 44.6889 35.8625 44.7497 34.2064 44.7573V41.8743H37.4464V40.9019ZM34.0051 47.4807H39.4329V49.9496H40.6256V46.5311H34.0051V47.4807ZM36.945 43.6671H39.4329V46.0829H40.6256V40.2486H39.4329V42.7023H36.945V43.6671Z" fill="#757575"/>
</svg>
