<svg width="64" height="64" viewBox="0 0 64 64" fill="none" xmlns="http://www.w3.org/2000/svg">
<rect width="64" height="64" rx="32" fill="#F5F5F5"/>
<mask id="mask0_281_49054" style="mask-type:luminance" maskUnits="userSpaceOnUse" x="24" y="14" width="17" height="20">
<path d="M27.5 19C28.6046 19 29.5 18.1046 29.5 17C29.5 15.8954 28.6046 15 27.5 15C26.3954 15 25.5 15.8954 25.5 17C25.5 18.1046 26.3954 19 27.5 19Z" fill="white" stroke="white" stroke-width="2" stroke-linecap="round" stroke-linejoin="round"/>
<path d="M36.5 19C37.6046 19 38.5 18.1046 38.5 17C38.5 15.8954 37.6046 15 36.5 15C35.3954 15 34.5 15.8954 34.5 17C34.5 18.1046 35.3954 19 36.5 19Z" fill="white" stroke="white" stroke-width="2" stroke-linecap="round" stroke-linejoin="round"/>
<path d="M25 22H30L29 33H26L25 22ZM34 22H39L40 27.5H38.5L38 33H35L34.5 27.5H33L34 22Z" fill="white" stroke="white" stroke-width="2" stroke-linecap="round" stroke-linejoin="round"/>
</mask>
<g mask="url(#mask0_281_49054)">
<path d="M20 12H44V36H20V12Z" fill="#757575"/>
</g>
<path d="M25.4019 40.2486H24.2016V49.9496H25.4019V45.2472H26.7617V44.2559H25.4019V40.2486ZM17.6039 47.2642L17.7748 48.2479C19.4271 48.2479 21.6757 48.2289 23.761 47.8529L23.6812 46.9755C22.9177 47.0818 22.1011 47.1502 21.2882 47.192V46.3298C22.3442 46.1512 23.0507 45.4865 23.0583 44.5711C23.0507 43.481 22.0745 42.7517 20.6957 42.7517C19.2979 42.7517 18.3369 43.481 18.3407 44.5711C18.3369 45.4865 19.0282 46.1474 20.088 46.326V47.2376C19.1954 47.2604 18.3407 47.2642 17.6039 47.2642ZM17.7862 42.3111H23.5749V41.3653H21.2882V40.2866H20.088V41.3653H17.7862V42.3111ZM19.4726 44.5711C19.4688 44.009 19.9588 43.6671 20.6957 43.6671C21.4212 43.6671 21.9112 44.009 21.9112 44.5711C21.9112 45.1333 21.4212 45.4637 20.6957 45.4599C19.9588 45.4637 19.4688 45.1333 19.4726 44.5711ZM31.0525 41.9997V41.8857H33.0656V40.9209H27.7935V41.8857H29.8522V42.0073C29.8446 43.2987 29.0242 44.5597 27.4593 45.0649L28.067 46.0107C29.2331 45.6195 30.0498 44.8142 30.479 43.7963C30.9082 44.6699 31.6792 45.3612 32.7694 45.703L33.3353 44.7648C31.8198 44.3015 31.0525 43.1847 31.0525 41.9997ZM28.7849 48.0884C28.7811 49.2583 30.0384 49.9458 32.0705 49.942C34.0836 49.9458 35.3181 49.2583 35.3181 48.0884C35.3181 46.9261 34.0836 46.25 32.0705 46.25C30.0384 46.25 28.7811 46.9261 28.7849 48.0884ZM29.9776 48.0884C29.9738 47.4997 30.7373 47.1882 32.0705 47.1882C33.3999 47.1882 34.1444 47.4997 34.1444 48.0884C34.1444 48.6885 33.3999 49.0076 32.0705 49.0038C30.7373 49.0076 29.9738 48.6885 29.9776 48.0884ZM34.0304 46.0373H35.2307V43.557H36.5867V42.577H35.2307V40.2486H34.0304V46.0373ZM45.485 40.2486H44.3037V45.2017H45.485V40.2486ZM37.4097 44.2483L38.0098 45.1865C39.1683 44.818 39.9926 44.0242 40.4332 43.0214C40.8738 43.9444 41.679 44.6661 42.8071 45.0117L43.3959 44.0849C41.8537 43.6253 41.0333 42.4706 41.0409 41.2286V40.4841H39.8064V41.2286C39.8064 42.5048 38.9784 43.7507 37.4097 44.2483ZM39.0544 46.5767H44.3113V47.2794H39.0847V49.8698H45.7926V48.9202H40.247V48.1682H45.5001V45.6461H39.0544V46.5767Z" fill="#757575"/>
</svg>
