<svg width="64" height="64" viewBox="0 0 64 64" fill="none" xmlns="http://www.w3.org/2000/svg">
<rect width="64" height="64" rx="32" fill="#F5F5F5"/>
<path d="M24 31L28 17M36 17L40 31M32 20V18M32 25V23M32 30V28" stroke="#757575" stroke-width="2" stroke-linecap="round" stroke-linejoin="round"/>
<path d="M21.6744 47.8263H17.7925V45.9157H20.8616V44.9776H19.4752V42.068H20.8996V41.107H13.5232V42.068H14.9286V44.9776H13.5536V45.9157H16.6112V47.8263H12.7977V48.8291H21.6744V47.8263ZM16.1174 44.9776V42.068H18.2977V44.9776H16.1174ZM26.1286 41.9997V41.8857H28.1417V40.9209H22.8696V41.8857H24.9283V42.0073C24.9207 43.2987 24.1003 44.5597 22.5354 45.0649L23.1431 46.0107C24.3092 45.6195 25.1258 44.8142 25.5551 43.7963C25.9843 44.6699 26.7553 45.3612 27.8455 45.703L28.4114 44.7648C26.8959 44.3015 26.1286 43.1847 26.1286 41.9997ZM23.861 48.0884C23.8572 49.2583 25.1144 49.9458 27.1466 49.942C29.1597 49.9458 30.3941 49.2583 30.3941 48.0884C30.3941 46.9261 29.1597 46.25 27.1466 46.25C25.1144 46.25 23.8572 46.9261 23.861 48.0884ZM25.0537 48.0884C25.0499 47.4997 25.8133 47.1882 27.1466 47.1882C28.476 47.1882 29.2205 47.4997 29.2205 48.0884C29.2205 48.6885 28.476 49.0076 27.1466 49.0038C25.8133 49.0076 25.0499 48.6885 25.0537 48.0884ZM29.1065 46.0373H30.3068V43.557H31.6628V42.577H30.3068V40.2486H29.1065V46.0373ZM40.3749 44.6585H34.7648V41.9237H40.299V40.9665H33.5683V45.6081H36.3183V47.8263H32.4934V48.8063H41.3701V47.8263H37.5034V45.6081H40.3749V44.6585ZM51.2179 47.8415H47.3512V46.2576H50.3899V45.2814H44.586V44.028H50.1658V40.9095H43.3781V41.8743H48.9845V43.0822H43.3933V46.2576H46.1661V47.8415H42.3412V48.8291H51.2179V47.8415Z" fill="#757575"/>
</svg>
