<svg width="64" height="64" viewBox="0 0 64 64" fill="none" xmlns="http://www.w3.org/2000/svg">
<rect width="64" height="64" rx="32" fill="#F5F5F5"/>
<path d="M27.4961 17.938L27.4414 17.5H27H26.8052L30.2073 15.4587C30.3215 15.3902 30.4137 15.2906 30.4733 15.1715L31.309 13.5H32.691L33.5267 15.1715C33.5863 15.2906 33.6785 15.3902 33.7927 15.4587L37.1948 17.5H37H36.5586L36.5039 17.938L35.5251 25.7678L33.6694 27.6235C33.6162 27.6767 33.5719 27.7381 33.5383 27.8054L33.0528 28.7764L32.691 29.5H33.5H34.5V34.5H29.5V29.5H30.5H31.309L30.9472 28.7764L30.4617 27.8054C30.4281 27.7381 30.3838 27.6767 30.3306 27.6235L28.4749 25.7678L27.4961 17.938ZM29 17.5H28.4364L28.5036 18.0596L29.3224 24.8834C29.3646 25.2352 29.6631 25.5 30.0174 25.5H33.9826C34.3369 25.5 34.6354 25.2352 34.6776 24.8834L35.4964 18.0596L35.5636 17.5H35H29Z" fill="#757575" stroke="#757575"/>
<path d="M30.3068 40.2486H29.1065V47.3477H30.3068V44.0811H31.6628V43.0898H30.3068V40.2486ZM22.7519 43.3329C22.7443 44.7497 23.8952 45.7752 25.3727 45.7752C26.8503 45.7752 27.9822 44.7497 27.9898 43.3329C27.9822 41.9047 26.8503 40.8943 25.3727 40.8943C23.8952 40.8943 22.7443 41.9047 22.7519 43.3329ZM23.9256 43.3329C23.918 42.4782 24.5599 41.9351 25.3727 41.9351C26.1932 41.9351 26.8199 42.4782 26.8237 43.3329C26.8199 44.1799 26.1932 44.7307 25.3727 44.7307C24.5599 44.7307 23.918 44.1799 23.9256 43.3329ZM24.0851 49.7673H30.6866V48.7987H25.274V46.6032H24.0851V49.7673ZM40.6256 40.2562H39.4329V42.8277H37.7123V43.7925H39.4329V47.3515H40.6256V40.2562ZM32.4706 45.2472L33.0859 46.2158C34.2368 45.8208 35.042 45.0003 35.4713 43.9824C35.8929 44.8978 36.6601 45.6423 37.7465 46.0069L38.3428 45.0611C36.8425 44.5635 36.06 43.3557 36.06 42.1896V41.9199H38.0693V40.9551H32.82V41.9199H34.8445V42.182C34.8445 43.4734 34.0165 44.7421 32.4706 45.2472ZM34.2558 49.7673H40.8687V48.7987H35.4485V46.7248H34.2558V49.7673Z" fill="#757575"/>
</svg>
