<svg width="64" height="64" viewBox="0 0 64 64" fill="none" xmlns="http://www.w3.org/2000/svg">
<rect width="64" height="64" rx="32" fill="#F5F5F5"/>
<path d="M27 19C27 17.6739 27.5268 16.4021 28.4645 15.4645C29.4021 14.5268 30.6739 14 32 14C33.3261 14 34.5979 14.5268 35.5355 15.4645C36.4732 16.4021 37 17.6739 37 19V29C37 30.3261 36.4732 31.5979 35.5355 32.5355C34.5979 33.4732 33.3261 34 32 34C30.6739 34 29.4021 33.4732 28.4645 32.5355C27.5268 31.5979 27 30.3261 27 29V19Z" stroke="#757575" stroke-width="2" stroke-linecap="round" stroke-linejoin="round"/>
<path d="M31 19C31 19.2652 31.1054 19.5196 31.2929 19.7071C31.4804 19.8946 31.7348 20 32 20C32.2652 20 32.5196 19.8946 32.7071 19.7071C32.8946 19.5196 33 19.2652 33 19C33 18.7348 32.8946 18.4804 32.7071 18.2929C32.5196 18.1054 32.2652 18 32 18C31.7348 18 31.4804 18.1054 31.2929 18.2929C31.1054 18.4804 31 18.7348 31 19ZM31 24C31 24.2652 31.1054 24.5196 31.2929 24.7071C31.4804 24.8946 31.7348 25 32 25C32.2652 25 32.5196 24.8946 32.7071 24.7071C32.8946 24.5196 33 24.2652 33 24C33 23.7348 32.8946 23.4804 32.7071 23.2929C32.5196 23.1054 32.2652 23 32 23C31.7348 23 31.4804 23.1054 31.2929 23.2929C31.1054 23.4804 31 23.7348 31 24ZM31 29C31 29.2652 31.1054 29.5196 31.2929 29.7071C31.4804 29.8946 31.7348 30 32 30C32.2652 30 32.5196 29.8946 32.7071 29.7071C32.8946 29.5196 33 29.2652 33 29C33 28.7348 32.8946 28.4804 32.7071 28.2929C32.5196 28.1054 32.2652 28 32 28C31.7348 28 31.4804 28.1054 31.2929 28.2929C31.1054 28.4804 31 28.7348 31 29Z" stroke="#757575" stroke-width="2" stroke-linecap="round" stroke-linejoin="round"/>
<path d="M20.8958 40.2714H19.6879V46.7894H20.8958V40.2714ZM12.8395 45.5435L12.999 46.4589C14.7083 46.4589 17.0214 46.4285 19.1029 46.0677L19.0156 45.2738C18.2445 45.3726 17.4241 45.4334 16.6036 45.4713V44.9054C17.6938 44.7724 18.4002 44.2673 18.4078 43.5152C18.4002 42.6568 17.4355 42.1174 16.0187 42.1174C14.5677 42.1174 13.6181 42.6568 13.6257 43.5152C13.6181 44.2673 14.3094 44.7686 15.4109 44.9054V45.5169C14.4917 45.5397 13.6067 45.5435 12.8395 45.5435ZM13.1433 41.8553H18.8826V40.9855H16.6036V40.1651H15.4109V40.9855H13.1433V41.8553ZM14.336 48.4227C14.336 49.4178 15.5287 49.9382 17.6406 49.9344C19.7373 49.9382 20.9375 49.4178 20.9375 48.4227C20.9375 47.4427 19.7373 46.9033 17.6406 46.9071C15.5287 46.9033 14.336 47.4427 14.336 48.4227ZM14.769 43.5152C14.769 43.143 15.2552 42.9227 16.0187 42.9227C16.7594 42.9227 17.2607 43.143 17.2645 43.5152C17.2607 43.9292 16.7594 44.1305 16.0187 44.1305C15.2552 44.1305 14.769 43.9292 14.769 43.5152ZM15.5211 48.4227C15.5135 47.9706 16.2314 47.7617 17.6406 47.7617C19.0346 47.7617 19.7373 47.9706 19.7373 48.4227C19.7373 48.8671 19.0346 49.0798 17.6406 49.076C16.2314 49.0798 15.5135 48.8671 15.5211 48.4227ZM30.3068 40.2486H29.1065V47.268H30.3068V43.9634H31.6704V42.9758H30.3068V40.2486ZM23.0519 45.6233H23.842C25.9577 45.6271 27.0896 45.5663 28.3582 45.3156L28.2253 44.347C27.0744 44.5901 26.064 44.6471 24.2408 44.6509V42.011H27.4048V41.0501H23.0519V45.6233ZM24.0851 49.7673H30.6866V48.7987H25.274V46.5311H24.0851V49.7673ZM41.3701 47.8073H37.5034V45.9157H40.3521V40.8905H39.1632V42.4782H34.666V40.8905H33.4695V45.9157H36.3183V47.8073H32.4934V48.7835H41.3701V47.8073ZM34.666 44.9548V43.4354H39.1632V44.9548H34.666ZM50.2228 44.6585H44.6126V41.9237H50.1468V40.9665H43.4161V45.6081H46.1661V47.8263H42.3412V48.8063H51.2179V47.8263H47.3512V45.6081H50.2228V44.6585Z" fill="#757575"/>
</svg>
