<svg width="24" height="24" viewBox="0 0 24 24" fill="none" xmlns="http://www.w3.org/2000/svg">
<path d="M5 21C4.71667 21 4.479 20.904 4.287 20.712C4.095 20.52 3.99934 20.2827 4 20C4 19.7167 4.096 19.479 4.288 19.287C4.48 19.095 4.71734 18.9993 5 19H19C19.2833 19 19.521 19.096 19.713 19.288C19.905 19.48 20.0007 19.7173 20 20C20 20.2833 19.904 20.521 19.712 20.713C19.52 20.905 19.2827 21.0007 19 21H5ZM8 17C6.9 17 5.95834 16.6083 5.175 15.825C4.39167 15.0417 4 14.1 4 13V5C4 4.45 4.196 3.979 4.588 3.587C4.98 3.195 5.45067 2.99934 6 3H20C20.55 3 21.021 3.196 21.413 3.588C21.805 3.98 22.0007 4.45067 22 5V8C22 8.55 21.804 9.021 21.412 9.413C21.02 9.805 20.5493 10.0007 20 10H18V13C18 14.1 17.6083 15.0417 16.825 15.825C16.0417 16.6083 15.1 17 14 17H8ZM18 8H20V5H18V8Z" fill="#FF4546"/>
</svg>
