<svg width="24" height="24" viewBox="0 0 24 24" fill="none" xmlns="http://www.w3.org/2000/svg">
<path d="M8.02499 18H11.025V17H9.02499V16H11.025V13H8.02499V14H10.025V15H8.02499V18ZM15.025 18H16.025V13H15.025V15H14.025V13H13.025V16H15.025V18ZM21.025 11.05V19C21.025 19.55 20.829 20.021 20.437 20.413C20.045 20.805 19.5747 21.0007 19.026 21H5.02599C4.47599 21 4.00499 20.804 3.61299 20.412C3.22099 20.02 3.02533 19.5493 3.02599 19V11.05C2.64266 10.7 2.34699 10.25 2.13899 9.7C1.93099 9.15 1.92666 8.55 2.12599 7.9L3.17599 4.5C3.30933 4.06667 3.54699 3.70833 3.88899 3.425C4.23099 3.14167 4.62599 3 5.07399 3H18.974C19.424 3 19.8157 3.13767 20.149 3.413C20.4823 3.68833 20.724 4.05067 20.874 4.5L21.924 7.9C22.124 8.55 22.12 9.14167 21.912 9.675C21.704 10.2083 21.409 10.6667 21.025 11.05ZM14.225 10C14.675 10 15.0167 9.84567 15.25 9.537C15.4833 9.22833 15.575 8.88267 15.525 8.5L14.975 5H13.025V8.7C13.025 9.05 13.1417 9.35433 13.375 9.613C13.6083 9.87167 13.8917 10.0007 14.225 10ZM9.72499 10C10.1083 10 10.4207 9.87067 10.662 9.612C10.9033 9.35333 11.0243 9.04933 11.025 8.7V5H9.07499L8.52499 8.5C8.45833 8.9 8.54566 9.25 8.78699 9.55C9.02833 9.85 9.34099 10 9.72499 10ZM5.27499 10C5.57499 10 5.83733 9.89167 6.06199 9.675C6.28666 9.45833 6.42433 9.18333 6.47499 8.85L7.02499 5H5.07499L4.07499 8.35C3.97499 8.68333 4.02899 9.04167 4.23699 9.425C4.44499 9.80833 4.79099 10 5.27499 10ZM18.775 10C19.2583 10 19.6083 9.80833 19.825 9.425C20.0417 9.04167 20.0917 8.68333 19.975 8.35L18.925 5H17.025L17.575 8.85C17.625 9.18333 17.7627 9.45833 17.988 9.675C18.2133 9.89167 18.4757 10 18.775 10ZM5.02499 19H19.025V11.95C18.9417 11.9833 18.8877 12 18.863 12H18.775C18.325 12 17.9293 11.925 17.588 11.775C17.2467 11.625 16.909 11.3833 16.575 11.05C16.275 11.35 15.9333 11.5833 15.55 11.75C15.1667 11.9167 14.7583 12 14.325 12C13.875 12 13.454 11.9167 13.062 11.75C12.67 11.5833 12.3243 11.35 12.025 11.05C11.7417 11.35 11.4123 11.5833 11.037 11.75C10.6617 11.9167 10.2577 12 9.82499 12C9.34166 12 8.90433 11.9167 8.51299 11.75C8.12166 11.5833 7.77566 11.35 7.47499 11.05C7.12499 11.4 6.77933 11.646 6.43799 11.788C6.09666 11.93 5.70866 12.0007 5.27399 12H5.16099C5.11966 12 5.07399 11.9833 5.02399 11.95L5.02499 19Z" fill="#FF4546"/>
</svg>
