<svg width="24" height="24" viewBox="0 0 24 24" fill="none" xmlns="http://www.w3.org/2000/svg">
<g clip-path="url(#clip0_135_8628)">
<path d="M5.54234 10.6C7.39234 8.99 9.79234 8 12.4423 8C16.6023 8 20.1823 10.42 21.8823 13.93C22.2023 14.6 21.8423 15.4 21.1323 15.64C20.5423 15.84 19.9023 15.56 19.6323 15C18.3323 12.34 15.6023 10.5 12.4423 10.5C10.4923 10.5 8.71234 11.22 7.32234 12.38L9.23234 14.29C9.86234 14.92 9.42234 16 8.53234 16H2.94234C2.39234 16 1.94234 15.55 1.94234 15V9.41C1.94234 8.52 3.02234 8.07 3.65234 8.7L5.54234 10.6Z" fill="#222222"/>
</g>
<defs>
<clipPath id="clip0_135_8628">
<rect width="24" height="24" fill="white"/>
</clipPath>
</defs>
</svg>
