<svg xmlns="http://www.w3.org/2000/svg" viewBox="0 0 106 21"><defs><style>.cls-1{fill:#ff4546;}.cls-2{fill:#fff;}</style></defs><g id="Layer_2" data-name="Layer 2"><g id="Layer_1-2" data-name="Layer 1"><path class="cls-1" d="M16,10.5A6,6,0,0,0,12.06,0H1.5a1.5,1.5,0,0,0,0,3h11a1.5,1.5,0,0,1,0,3h-6a1.5,1.5,0,0,0,0,3h2a1.5,1.5,0,0,1,0,3h-3a1.5,1.5,0,0,0,0,3h5a1.5,1.5,0,0,1,0,3h-9a1.5,1.5,0,0,0,0,3H12a6,6,0,0,0,4-10.5Z"/><circle class="cls-1" cx="1.5" cy="7.5" r="1.5"/><path class="cls-2" d="M38.36,3.47V19.32h-3L27.58,9.7v9.62H24V3.47h3l7.78,9.62V3.47Z"/><path class="cls-2" d="M42,4.87a1.83,1.83,0,0,1-.6-1.4,1.83,1.83,0,0,1,.6-1.4,2.2,2.2,0,0,1,1.57-.57A2.24,2.24,0,0,1,45.14,2a1.75,1.75,0,0,1,.61,1.36,1.9,1.9,0,0,1-.61,1.46,2.14,2.14,0,0,1-1.56.58A2.2,2.2,0,0,1,42,4.87Zm-.18,2.27h3.49V19.32H41.83Z"/><path class="cls-2" d="M67.57,8.3a5.54,5.54,0,0,1,1.33,4v7H65.41V12.89a3.28,3.28,0,0,0-.59-2.16A2.07,2.07,0,0,0,63.13,10a2.44,2.44,0,0,0-1.94.81,3.47,3.47,0,0,0-.72,2.39v6.11H57V12.89Q57,10,54.7,10a2.45,2.45,0,0,0-1.93.81,3.47,3.47,0,0,0-.71,2.39v6.11H48.57V7.14H51.9v1.4a4.63,4.63,0,0,1,1.64-1.18A5.55,5.55,0,0,1,55.68,7,5.16,5.16,0,0,1,58,7.47,4.13,4.13,0,0,1,59.64,9a5,5,0,0,1,1.87-1.47A5.79,5.79,0,0,1,64,7,4.83,4.83,0,0,1,67.57,8.3Z"/><path class="cls-2" d="M82.21,7.74a5.59,5.59,0,0,1,2.15,2.19,6.66,6.66,0,0,1,.79,3.3,6.59,6.59,0,0,1-.79,3.29,5.55,5.55,0,0,1-2.15,2.2,6.11,6.11,0,0,1-3.06.78,4.63,4.63,0,0,1-3.78-1.58v1.4H72V2.52h3.49V8.43A4.62,4.62,0,0,1,79.15,7,6.11,6.11,0,0,1,82.21,7.74Zm-1.46,7.94a3.41,3.41,0,0,0,.86-2.45,3.42,3.42,0,0,0-.86-2.46,3.1,3.1,0,0,0-4.41,0,3.46,3.46,0,0,0-.86,2.46,3.45,3.45,0,0,0,.86,2.45,3.1,3.1,0,0,0,4.41,0Z"/><path class="cls-2" d="M87.47,2.52H91v16.8H87.47Z"/><path class="cls-2" d="M105.93,14.22h-9.1A2.83,2.83,0,0,0,98,16a3.8,3.8,0,0,0,2.28.66,4.57,4.57,0,0,0,1.67-.28,4,4,0,0,0,1.35-.9l1.86,2a6.21,6.21,0,0,1-5,2,7.85,7.85,0,0,1-3.6-.8,5.94,5.94,0,0,1-2.42-2.23,6.27,6.27,0,0,1-.85-3.24A6.3,6.3,0,0,1,94.15,10a5.92,5.92,0,0,1,2.31-2.24A6.75,6.75,0,0,1,99.74,7a6.61,6.61,0,0,1,3.2.77,5.58,5.58,0,0,1,2.24,2.2,6.62,6.62,0,0,1,.82,3.34C106,13.32,106,13.64,105.93,14.22Zm-8.16-3.91a2.89,2.89,0,0,0-1,1.85h5.93a3.06,3.06,0,0,0-4.94-1.85Z"/></g></g></svg>