<svg width="580" height="105" viewBox="0 0 580 105" fill="none" xmlns="http://www.w3.org/2000/svg">
<path d="M372.5 35L435.5 46.4184V105L357.5 92.5887L372.5 35Z" fill="#FF4546"/>
<path d="M138.16 60.272V53H136.648V70.064H138.16V61.676H143.02V60.272H138.16ZM133.732 66.212V64.772C131.5 65.816 127.288 66.428 121.96 66.428H114.076V55.484H131.212V54.08H112.564V67.832H121.744C127.288 67.832 131.608 67.22 133.732 66.212ZM126.136 71.504C119.08 71.504 113.536 73.268 113.536 77.48C113.536 81.692 119.08 83.456 126.136 83.456C133.192 83.456 138.736 81.692 138.736 77.48C138.736 73.268 133.192 71.504 126.136 71.504ZM126.136 82.052C119.944 82.052 115.084 80.576 115.084 77.48C115.084 74.384 119.944 72.908 126.136 72.908C132.328 72.908 137.188 74.384 137.188 77.48C137.188 80.576 132.328 82.052 126.136 82.052ZM172.681 53H171.169V75.896H172.681V53ZM155.293 62.756L165.553 70.64L166.525 69.452L155.905 61.28C156.805 58.94 157.273 56.276 157.273 53.504L155.761 53.432C155.761 60.884 151.945 67.976 145.321 69.416V70.856C149.857 69.956 153.277 66.896 155.293 62.756ZM149.245 81.62V74.06H147.733V83.024H173.833V81.62H149.245ZM206.446 53H204.934V83.744H206.446V53ZM188.914 54.008C183.55 54.008 179.662 57.968 179.662 63.44C179.662 68.912 183.55 72.872 188.914 72.872C194.278 72.872 198.166 68.912 198.166 63.44C198.166 57.968 194.278 54.008 188.914 54.008ZM188.914 55.412C193.558 55.412 196.618 58.904 196.618 63.44C196.618 67.976 193.558 71.468 188.914 71.468C184.27 71.468 181.21 67.976 181.21 63.44C181.21 58.904 184.27 55.412 188.914 55.412ZM201.658 79.964V78.524C199.426 79.604 195.214 80.18 189.886 80.18H178.438V81.584H189.67C195.214 81.584 199.534 80.972 201.658 79.964ZM244.649 53V64.088H240.185V69.992H244.649V83.744H250.733V53H244.649ZM228.125 76.832V70.64H238.709V53.72H222.005V59.192H232.661V65.24H222.077V82.304H233.561C236.621 82.304 240.077 81.764 241.949 80.828V75.428C240.077 76.256 236.909 76.832 233.993 76.832H228.125ZM284.245 53H278.161V69.632H284.245V53ZM261.673 53.18H255.517V68.336H269.557C272.437 68.336 275.137 67.94 276.721 67.256V62.18C275.101 62.864 272.401 63.26 269.629 63.26H261.673V53.18ZM270.493 69.992C262.681 69.992 256.453 71.828 256.453 77.048C256.453 82.268 262.681 84.104 270.493 84.104C278.305 84.104 284.533 82.268 284.533 77.048C284.533 71.828 278.305 69.992 270.493 69.992ZM270.493 74.888C274.633 74.888 277.981 75.536 277.981 77.048C277.981 78.596 274.633 79.208 270.493 79.208C266.353 79.208 263.005 78.596 263.005 77.048C263.005 75.536 266.353 74.888 270.493 74.888ZM315.778 53V83.744H317.29V53H315.778ZM308.578 66.716H302.962C302.746 58.112 300.37 54.008 296.122 54.008C291.658 54.008 289.282 58.544 289.282 68.012C289.282 77.48 291.658 82.016 296.122 82.016C300.586 82.016 302.926 77.516 302.962 68.12H308.578V83.204H310.09V53.216H308.578V66.716ZM296.122 80.612C292.594 80.612 290.794 76.544 290.794 68.012C290.794 59.48 292.594 55.412 296.122 55.412C299.65 55.412 301.45 59.48 301.45 68.012C301.45 76.544 299.65 80.612 296.122 80.612ZM338.059 80.54V71.144H350.659V69.74H326.035V55.844H350.299V54.44H324.523V71.144H336.547V80.54H322.183V81.944H352.567V80.54H338.059Z" fill="white"/>
<path d="M29.16 17.272V10H27.648V27.064H29.16V18.676H34.02V17.272H29.16ZM24.732 23.212V21.772C22.5 22.816 18.288 23.428 12.96 23.428H5.076V12.484H22.212V11.08H3.564V24.832H12.744C18.288 24.832 22.608 24.22 24.732 23.212ZM17.136 28.504C10.08 28.504 4.536 30.268 4.536 34.48C4.536 38.692 10.08 40.456 17.136 40.456C24.192 40.456 29.736 38.692 29.736 34.48C29.736 30.268 24.192 28.504 17.136 28.504ZM17.136 39.052C10.944 39.052 6.084 37.576 6.084 34.48C6.084 31.384 10.944 29.908 17.136 29.908C23.328 29.908 28.188 31.384 28.188 34.48C28.188 37.576 23.328 39.052 17.136 39.052ZM63.6809 10H62.1689V32.896H63.6809V10ZM46.2929 19.756L56.5529 27.64L57.5249 26.452L46.9049 18.28C47.8049 15.94 48.2729 13.276 48.2729 10.504L46.7609 10.432C46.7609 17.884 42.9449 24.976 36.3209 26.416V27.856C40.8569 26.956 44.2769 23.896 46.2929 19.756ZM40.2449 38.62V31.06H38.7329V40.024H64.8329V38.62H40.2449ZM97.4458 10H95.9338V40.744H97.4458V10ZM79.9138 11.008C74.5498 11.008 70.6618 14.968 70.6618 20.44C70.6618 25.912 74.5498 29.872 79.9138 29.872C85.2778 29.872 89.1658 25.912 89.1658 20.44C89.1658 14.968 85.2778 11.008 79.9138 11.008ZM79.9138 12.412C84.5578 12.412 87.6178 15.904 87.6178 20.44C87.6178 24.976 84.5578 28.468 79.9138 28.468C75.2698 28.468 72.2098 24.976 72.2098 20.44C72.2098 15.904 75.2698 12.412 79.9138 12.412ZM92.6578 36.964V35.524C90.4258 36.604 86.2138 37.18 80.8858 37.18H69.4378V38.584H80.6698C86.2138 38.584 90.5338 37.972 92.6578 36.964ZM140.113 10H138.601V32.896H140.113V10ZM122.293 10.54C116.281 10.54 112.861 14.428 112.861 19.252C112.861 24.076 116.281 27.964 122.293 27.964C128.305 27.964 131.725 24.076 131.725 19.252C131.725 14.428 128.305 10.54 122.293 10.54ZM122.293 11.872C127.045 11.872 130.177 14.824 130.177 19.252C130.177 23.68 127.045 26.632 122.293 26.632C117.541 26.632 114.409 23.68 114.409 19.252C114.409 14.824 117.541 11.872 122.293 11.872ZM117.037 30.556H115.525V40.024H141.265V38.62H117.037V30.556ZM165.849 18.028H173.121V28.036H174.633V10H173.121V16.624H165.849V10.216H164.337V27.028H165.849V18.028ZM153.897 19L161.061 25.84L162.105 24.76L154.329 17.38C154.797 15.292 154.977 12.952 154.977 10.468L153.465 10.432C153.465 17.056 152.241 23.248 145.941 25.3V26.74C150.297 25.48 152.673 22.708 153.897 19ZM162.033 29.08C155.193 29.08 148.857 30.52 148.857 34.768C148.857 39.016 155.193 40.456 162.033 40.456C168.873 40.456 175.209 39.016 175.209 34.768C175.209 30.52 168.873 29.08 162.033 29.08ZM162.033 39.052C156.345 39.052 150.405 37.936 150.405 34.768C150.405 31.6 156.345 30.484 162.033 30.484C167.721 30.484 173.661 31.6 173.661 34.768C173.661 37.936 167.721 39.052 162.033 39.052ZM206.778 10V40.744H208.29V10H206.778ZM199.578 23.716H193.962C193.746 15.112 191.37 11.008 187.122 11.008C182.658 11.008 180.282 15.544 180.282 25.012C180.282 34.48 182.658 39.016 187.122 39.016C191.586 39.016 193.926 34.516 193.962 25.12H199.578V40.204H201.09V10.216H199.578V23.716ZM187.122 37.612C183.594 37.612 181.794 33.544 181.794 25.012C181.794 16.48 183.594 12.412 187.122 12.412C190.65 12.412 192.45 16.48 192.45 25.012C192.45 33.544 190.65 37.612 187.122 37.612ZM229.059 37.54V28.144H241.659V26.74H217.035V12.844H241.299V11.44H215.523V28.144H227.547V37.54H213.183V38.944H243.567V37.54H229.059ZM249.648 37.144H247.992L246.984 44.128H248.316L249.648 37.144Z" fill="white"/>
<path d="M392.668 75.752H398.644V53H392.668V55.304H389.392V60.668H392.668V63.188H389.392V68.552H392.668V75.752ZM387.952 53.36H382.048V57.248H375.532V53.36H369.628V71.324H387.952V53.36ZM375.532 66.248V62.216H382.048V66.248H375.532ZM377.332 78.272V73.124H371.14V83.744H399.076V78.272H377.332ZM417.793 62.936L430.573 69.668L433.417 64.556L420.709 58.328C421.393 56.78 421.897 55.16 422.149 53.432L415.957 52.532C414.985 59.3 409.153 63.908 403.141 63.908V69.632C408.865 69.668 414.193 67.076 417.793 62.936ZM433.525 71.936H402.421V77.552H414.841V84.464H421.105V77.552H433.525V71.936ZM468.55 64.232H464.95V53H458.866V83.744H464.95V70.136H468.55V64.232ZM436.942 59.264H448.138V62.036C448.138 71.036 444.322 76.472 436.942 76.544V82.304C447.598 82.304 454.33 74.528 454.33 62.036V53.72H436.942V59.264ZM497.969 63.728H502.649V68.912H508.733V53H502.649V58.04H497.897C496.601 54.944 493.217 53.036 488.609 53.036C482.705 53.036 478.745 56.204 478.745 60.956C478.745 65.744 482.705 68.876 488.609 68.876C493.289 68.876 496.745 66.932 497.969 63.728ZM484.793 60.956C484.793 59.12 486.269 57.932 488.609 57.932C490.949 57.932 492.425 59.12 492.425 60.956C492.425 62.792 490.949 63.98 488.609 63.98C486.269 63.98 484.793 62.792 484.793 60.956ZM511.793 79.784L506.069 75.104C506.573 73.628 506.861 72.008 506.933 70.352L501.137 69.92C500.957 74.42 498.761 78.092 496.061 78.488V83.744C499.157 83.672 501.749 82.124 503.621 79.748L508.121 83.816L511.793 79.784ZM489.869 72.512H486.665V69.992H481.337V83.744H495.197V69.992H489.869V72.512ZM486.665 79.388V76.76H489.869V79.388H486.665ZM531.193 77.012V71.936H542.281V66.32H520.429V59.372H541.921V53.72H514.201V71.936H525.001V77.012H512.509V82.664H543.613V77.012H531.193ZM564.742 68.876V67.292H575.722V63.332H554.014V61.928H575.398V53H548.002V56.96H569.458V58.364H548.074V67.292H558.694V68.876H546.166V73.52H577.27V68.876H564.742ZM547.822 79.568H569.314V84.104H575.47V74.924H547.822V79.568Z" fill="white"/>
</svg>
