<svg width="251" height="206" viewBox="0 0 251 206" fill="none" xmlns="http://www.w3.org/2000/svg">
<path d="M20 136L83 147.418V206L5 193.589L20 136Z" fill="#FF4546"/>
<path d="M29.16 60.272V53H27.648V70.064H29.16V61.676H34.02V60.272H29.16ZM24.732 66.212V64.772C22.5 65.816 18.288 66.428 12.96 66.428H5.076V55.484H22.212V54.08H3.564V67.832H12.744C18.288 67.832 22.608 67.22 24.732 66.212ZM17.136 71.504C10.08 71.504 4.536 73.268 4.536 77.48C4.536 81.692 10.08 83.456 17.136 83.456C24.192 83.456 29.736 81.692 29.736 77.48C29.736 73.268 24.192 71.504 17.136 71.504ZM17.136 82.052C10.944 82.052 6.084 80.576 6.084 77.48C6.084 74.384 10.944 72.908 17.136 72.908C23.328 72.908 28.188 74.384 28.188 77.48C28.188 80.576 23.328 82.052 17.136 82.052ZM63.6809 53H62.1689V75.896H63.6809V53ZM46.2929 62.756L56.5529 70.64L57.5249 69.452L46.9049 61.28C47.8049 58.94 48.2729 56.276 48.2729 53.504L46.7609 53.432C46.7609 60.884 42.9449 67.976 36.3209 69.416V70.856C40.8569 69.956 44.2769 66.896 46.2929 62.756ZM40.2449 81.62V74.06H38.7329V83.024H64.8329V81.62H40.2449ZM97.4458 53H95.9338V83.744H97.4458V53ZM79.9138 54.008C74.5498 54.008 70.6618 57.968 70.6618 63.44C70.6618 68.912 74.5498 72.872 79.9138 72.872C85.2778 72.872 89.1658 68.912 89.1658 63.44C89.1658 57.968 85.2778 54.008 79.9138 54.008ZM79.9138 55.412C84.5578 55.412 87.6178 58.904 87.6178 63.44C87.6178 67.976 84.5578 71.468 79.9138 71.468C75.2698 71.468 72.2098 67.976 72.2098 63.44C72.2098 58.904 75.2698 55.412 79.9138 55.412ZM92.6578 79.964V78.524C90.4258 79.604 86.2138 80.18 80.8858 80.18H69.4378V81.584H80.6698C86.2138 81.584 90.5338 80.972 92.6578 79.964ZM135.649 53V64.088H131.185V69.992H135.649V83.744H141.733V53H135.649ZM119.125 76.832V70.64H129.709V53.72H113.005V59.192H123.661V65.24H113.077V82.304H124.561C127.621 82.304 131.077 81.764 132.949 80.828V75.428C131.077 76.256 127.909 76.832 124.993 76.832H119.125ZM175.245 53H169.161V69.632H175.245V53ZM152.673 53.18H146.517V68.336H160.557C163.437 68.336 166.137 67.94 167.721 67.256V62.18C166.101 62.864 163.401 63.26 160.629 63.26H152.673V53.18ZM161.493 69.992C153.681 69.992 147.453 71.828 147.453 77.048C147.453 82.268 153.681 84.104 161.493 84.104C169.305 84.104 175.533 82.268 175.533 77.048C175.533 71.828 169.305 69.992 161.493 69.992ZM161.493 74.888C165.633 74.888 168.981 75.536 168.981 77.048C168.981 78.596 165.633 79.208 161.493 79.208C157.353 79.208 154.005 78.596 154.005 77.048C154.005 75.536 157.353 74.888 161.493 74.888ZM206.778 53V83.744H208.29V53H206.778ZM199.578 66.716H193.962C193.746 58.112 191.37 54.008 187.122 54.008C182.658 54.008 180.282 58.544 180.282 68.012C180.282 77.48 182.658 82.016 187.122 82.016C191.586 82.016 193.926 77.516 193.962 68.12H199.578V83.204H201.09V53.216H199.578V66.716ZM187.122 80.612C183.594 80.612 181.794 76.544 181.794 68.012C181.794 59.48 183.594 55.412 187.122 55.412C190.65 55.412 192.45 59.48 192.45 68.012C192.45 76.544 190.65 80.612 187.122 80.612ZM229.059 80.54V71.144H241.659V69.74H217.035V55.844H241.299V54.44H215.523V71.144H227.547V80.54H213.183V81.944H243.567V80.54H229.059Z" fill="white"/>
<path d="M29.16 17.272V10H27.648V27.064H29.16V18.676H34.02V17.272H29.16ZM24.732 23.212V21.772C22.5 22.816 18.288 23.428 12.96 23.428H5.076V12.484H22.212V11.08H3.564V24.832H12.744C18.288 24.832 22.608 24.22 24.732 23.212ZM17.136 28.504C10.08 28.504 4.536 30.268 4.536 34.48C4.536 38.692 10.08 40.456 17.136 40.456C24.192 40.456 29.736 38.692 29.736 34.48C29.736 30.268 24.192 28.504 17.136 28.504ZM17.136 39.052C10.944 39.052 6.084 37.576 6.084 34.48C6.084 31.384 10.944 29.908 17.136 29.908C23.328 29.908 28.188 31.384 28.188 34.48C28.188 37.576 23.328 39.052 17.136 39.052ZM63.6809 10H62.1689V32.896H63.6809V10ZM46.2929 19.756L56.5529 27.64L57.5249 26.452L46.9049 18.28C47.8049 15.94 48.2729 13.276 48.2729 10.504L46.7609 10.432C46.7609 17.884 42.9449 24.976 36.3209 26.416V27.856C40.8569 26.956 44.2769 23.896 46.2929 19.756ZM40.2449 38.62V31.06H38.7329V40.024H64.8329V38.62H40.2449ZM97.4458 10H95.9338V40.744H97.4458V10ZM79.9138 11.008C74.5498 11.008 70.6618 14.968 70.6618 20.44C70.6618 25.912 74.5498 29.872 79.9138 29.872C85.2778 29.872 89.1658 25.912 89.1658 20.44C89.1658 14.968 85.2778 11.008 79.9138 11.008ZM79.9138 12.412C84.5578 12.412 87.6178 15.904 87.6178 20.44C87.6178 24.976 84.5578 28.468 79.9138 28.468C75.2698 28.468 72.2098 24.976 72.2098 20.44C72.2098 15.904 75.2698 12.412 79.9138 12.412ZM92.6578 36.964V35.524C90.4258 36.604 86.2138 37.18 80.8858 37.18H69.4378V38.584H80.6698C86.2138 38.584 90.5338 37.972 92.6578 36.964ZM140.113 10H138.601V32.896H140.113V10ZM122.293 10.54C116.281 10.54 112.861 14.428 112.861 19.252C112.861 24.076 116.281 27.964 122.293 27.964C128.305 27.964 131.725 24.076 131.725 19.252C131.725 14.428 128.305 10.54 122.293 10.54ZM122.293 11.872C127.045 11.872 130.177 14.824 130.177 19.252C130.177 23.68 127.045 26.632 122.293 26.632C117.541 26.632 114.409 23.68 114.409 19.252C114.409 14.824 117.541 11.872 122.293 11.872ZM117.037 30.556H115.525V40.024H141.265V38.62H117.037V30.556ZM165.849 18.028H173.121V28.036H174.633V10H173.121V16.624H165.849V10.216H164.337V27.028H165.849V18.028ZM153.897 19L161.061 25.84L162.105 24.76L154.329 17.38C154.797 15.292 154.977 12.952 154.977 10.468L153.465 10.432C153.465 17.056 152.241 23.248 145.941 25.3V26.74C150.297 25.48 152.673 22.708 153.897 19ZM162.033 29.08C155.193 29.08 148.857 30.52 148.857 34.768C148.857 39.016 155.193 40.456 162.033 40.456C168.873 40.456 175.209 39.016 175.209 34.768C175.209 30.52 168.873 29.08 162.033 29.08ZM162.033 39.052C156.345 39.052 150.405 37.936 150.405 34.768C150.405 31.6 156.345 30.484 162.033 30.484C167.721 30.484 173.661 31.6 173.661 34.768C173.661 37.936 167.721 39.052 162.033 39.052ZM206.778 10V40.744H208.29V10H206.778ZM199.578 23.716H193.962C193.746 15.112 191.37 11.008 187.122 11.008C182.658 11.008 180.282 15.544 180.282 25.012C180.282 34.48 182.658 39.016 187.122 39.016C191.586 39.016 193.926 34.516 193.962 25.12H199.578V40.204H201.09V10.216H199.578V23.716ZM187.122 37.612C183.594 37.612 181.794 33.544 181.794 25.012C181.794 16.48 183.594 12.412 187.122 12.412C190.65 12.412 192.45 16.48 192.45 25.012C192.45 33.544 190.65 37.612 187.122 37.612ZM229.059 37.54V28.144H241.659V26.74H217.035V12.844H241.299V11.44H215.523V28.144H227.547V37.54H213.183V38.944H243.567V37.54H229.059ZM249.648 37.144H247.992L246.984 44.128H248.316L249.648 37.144Z" fill="white"/>
<path d="M39.168 176.752H45.144V154H39.168V156.304H35.892V161.668H39.168V164.188H35.892V169.552H39.168V176.752ZM34.452 154.36H28.548V158.248H22.032V154.36H16.128V172.324H34.452V154.36ZM22.032 167.248V163.216H28.548V167.248H22.032ZM23.832 179.272V174.124H17.64V184.744H45.576V179.272H23.832ZM64.2929 163.936L77.0729 170.668L79.9169 165.556L67.2089 159.328C67.8929 157.78 68.3969 156.16 68.6489 154.432L62.4569 153.532C61.4849 160.3 55.6529 164.908 49.6409 164.908V170.632C55.3649 170.668 60.6929 168.076 64.2929 163.936ZM80.0249 172.936H48.9209V178.552H61.3409V185.464H67.6049V178.552H80.0249V172.936ZM115.05 165.232H111.45V154H105.366V184.744H111.45V171.136H115.05V165.232ZM83.4418 160.264H94.6378V163.036C94.6378 172.036 90.8218 177.472 83.4418 177.544V183.304C94.0978 183.304 100.83 175.528 100.83 163.036V154.72H83.4418V160.264ZM144.469 164.728H149.149V169.912H155.233V154H149.149V159.04H144.397C143.101 155.944 139.717 154.036 135.109 154.036C129.205 154.036 125.245 157.204 125.245 161.956C125.245 166.744 129.205 169.876 135.109 169.876C139.789 169.876 143.245 167.932 144.469 164.728ZM131.293 161.956C131.293 160.12 132.769 158.932 135.109 158.932C137.449 158.932 138.925 160.12 138.925 161.956C138.925 163.792 137.449 164.98 135.109 164.98C132.769 164.98 131.293 163.792 131.293 161.956ZM158.293 180.784L152.569 176.104C153.073 174.628 153.361 173.008 153.433 171.352L147.637 170.92C147.457 175.42 145.261 179.092 142.561 179.488V184.744C145.657 184.672 148.249 183.124 150.121 180.748L154.621 184.816L158.293 180.784ZM136.369 173.512H133.165V170.992H127.837V184.744H141.697V170.992H136.369V173.512ZM133.165 180.388V177.76H136.369V180.388H133.165ZM177.693 178.012V172.936H188.781V167.32H166.929V160.372H188.421V154.72H160.701V172.936H171.501V178.012H159.009V183.664H190.113V178.012H177.693ZM211.242 169.876V168.292H222.222V164.332H200.514V162.928H221.898V154H194.502V157.96H215.958V159.364H194.574V168.292H205.194V169.876H192.666V174.52H223.77V169.876H211.242ZM194.322 180.568H215.814V185.104H221.97V175.924H194.322V180.568Z" fill="white"/>
</svg>
