<svg width="64" height="64" viewBox="0 0 64 64" fill="none" xmlns="http://www.w3.org/2000/svg">
<rect width="64" height="64" rx="32" fill="#FF4546"/>
<path d="M26 31.5C26 31.5 25.0015 29 25.5015 27C26.0015 25 28.5 23 29 21C29.5 19 28.0001 17 28.0001 17M35.9996 17C35.9996 17 37.5 19.5 37.5 21.5C37.5 23.5 35.5 25 35.5 27C35.5 29 38.5001 31 38.5001 31" stroke="white" stroke-width="2" stroke-linecap="round" stroke-linejoin="round"/>
<circle cx="27.75" cy="28.75" r="0.75" fill="white"/>
<circle cx="30.75" cy="28.75" r="0.75" fill="white"/>
<circle cx="34.75" cy="30.75" r="0.75" fill="white"/>
<circle cx="34.75" cy="28.75" r="0.75" fill="white"/>
<circle cx="27.75" cy="25.75" r="0.75" fill="white"/>
<circle cx="35.75" cy="20.75" r="0.75" fill="white"/>
<circle cx="34.75" cy="22.75" r="0.75" fill="white"/>
<circle cx="33.75" cy="18.75" r="0.75" fill="white"/>
<path d="M15.9528 40.2486H14.7488V49.9724H15.9528V40.2486ZM8.38275 47.6782H13.1117V41.0387H11.9304V43.4658H9.57923V41.0387H8.38275V47.6782ZM9.57923 46.6982V44.4002H11.9304V46.6982H9.57923ZM26.5983 47.8263H22.7164V45.9157H25.7855V44.9776H24.3991V42.068H25.8235V41.107H18.4471V42.068H19.8525V44.9776H18.4775V45.9157H21.5351V47.8263H17.7216V48.8291H26.5983V47.8263ZM21.0414 44.9776V42.068H23.2216V44.9776H21.0414ZM31.0525 41.9997V41.8857H33.0656V40.9209H27.7935V41.8857H29.8522V42.0073C29.8446 43.2987 29.0242 44.5597 27.4593 45.0649L28.067 46.0107C29.2331 45.6195 30.0498 44.8142 30.479 43.7963C30.9082 44.6699 31.6792 45.3612 32.7694 45.703L33.3353 44.7648C31.8198 44.3015 31.0525 43.1847 31.0525 41.9997ZM28.7849 48.0884C28.7811 49.2583 30.0384 49.9458 32.0705 49.942C34.0836 49.9458 35.3181 49.2583 35.3181 48.0884C35.3181 46.9261 34.0836 46.25 32.0705 46.25C30.0384 46.25 28.7811 46.9261 28.7849 48.0884ZM29.9776 48.0884C29.9738 47.4997 30.7373 47.1882 32.0705 47.1882C33.3999 47.1882 34.1444 47.4997 34.1444 48.0884C34.1444 48.6885 33.3999 49.0076 32.0705 49.0038C30.7373 49.0076 29.9738 48.6885 29.9776 48.0884ZM34.0304 46.0373H35.2307V43.557H36.5867V42.577H35.2307V40.2486H34.0304V46.0373ZM45.2988 44.6585H39.6887V41.9237H45.2229V40.9665H38.4922V45.6081H41.2422V47.8263H37.4173V48.8063H46.294V47.8263H42.4273V45.6081H45.2988V44.6585ZM56.1418 47.8415H52.2751V46.2576H55.3138V45.2814H49.5099V44.028H55.0897V40.9095H48.3021V41.8743H53.9084V43.0822H48.3173V46.2576H51.09V47.8415H47.2651V48.8291H56.1418V47.8415Z" fill="white"/>
</svg>
