<svg width="14" height="14" viewBox="0 0 14 14" fill="none" xmlns="http://www.w3.org/2000/svg">
<path d="M6.9995 13.999C11.6665 13.999 13.999 10.865 13.999 6.999C13.999 3.134 11.6665 0 6.999 0C2.3325 0 0 3.134 0 6.9995C0 10.865 2.332 13.999 6.9995 13.999Z" fill="url(#paint0_radial_226_9156)"/>
<path d="M6.9995 13.999C11.6665 13.999 13.999 10.865 13.999 6.999C13.999 3.134 11.6665 0 6.999 0C2.3325 0 0 3.134 0 6.9995C0 10.865 2.332 13.999 6.9995 13.999Z" fill="url(#paint1_radial_226_9156)"/>
<path d="M6.9995 13.999C11.6665 13.999 13.999 10.865 13.999 6.999C13.999 3.134 11.6665 0 6.999 0C2.3325 0 0 3.134 0 6.9995C0 10.865 2.332 13.999 6.9995 13.999Z" fill="url(#paint2_radial_226_9156)"/>
<path d="M6.9995 13.999C11.6665 13.999 13.999 10.865 13.999 6.999C13.999 3.134 11.6665 0 6.999 0C2.3325 0 0 3.134 0 6.9995C0 10.865 2.332 13.999 6.9995 13.999Z" fill="url(#paint3_radial_226_9156)" fill-opacity="0.6"/>
<path d="M6.9995 13.999C11.6665 13.999 13.999 10.865 13.999 6.999C13.999 3.134 11.6665 0 6.999 0C2.3325 0 0 3.134 0 6.9995C0 10.865 2.332 13.999 6.9995 13.999Z" fill="url(#paint4_radial_226_9156)"/>
<path d="M6.9995 13.999C11.6665 13.999 13.999 10.865 13.999 6.999C13.999 3.134 11.6665 0 6.999 0C2.3325 0 0 3.134 0 6.9995C0 10.865 2.332 13.999 6.9995 13.999Z" fill="url(#paint5_radial_226_9156)"/>
<path d="M6.9995 13.999C11.6665 13.999 13.999 10.865 13.999 6.999C13.999 3.134 11.6665 0 6.999 0C2.3325 0 0 3.134 0 6.9995C0 10.865 2.332 13.999 6.9995 13.999Z" fill="url(#paint6_radial_226_9156)"/>
<path d="M6.9995 13.999C11.6665 13.999 13.999 10.865 13.999 6.999C13.999 3.134 11.6665 0 6.999 0C2.3325 0 0 3.134 0 6.9995C0 10.865 2.332 13.999 6.9995 13.999Z" fill="url(#paint7_radial_226_9156)"/>
<g opacity="0.6" filter="url(#filter0_f_226_9156)">
<path fill-rule="evenodd" clip-rule="evenodd" d="M2.64639 3.89679C2.74016 3.80305 2.86731 3.75039 2.99989 3.75039C3.13248 3.75039 3.25963 3.80305 3.35339 3.89679L4.24989 4.79329L5.14639 3.89679C5.19252 3.84903 5.24769 3.81094 5.30869 3.78473C5.36969 3.75853 5.4353 3.74474 5.50169 3.74416C5.56808 3.74358 5.63392 3.75623 5.69537 3.78137C5.75682 3.80651 5.81264 3.84364 5.85959 3.89059C5.90654 3.93753 5.94366 3.99336 5.9688 4.05481C5.99394 4.11626 6.0066 4.1821 6.00602 4.24849C6.00544 4.31488 5.99165 4.38049 5.96544 4.44149C5.93924 4.50249 5.90115 4.55766 5.85339 4.60378L4.95689 5.50029L5.85339 6.39679C5.94447 6.49109 5.99487 6.61739 5.99373 6.74849C5.99259 6.87958 5.94001 7.00499 5.8473 7.09769C5.7546 7.1904 5.62919 7.24298 5.49809 7.24412C5.367 7.24526 5.24069 7.19486 5.14639 7.10379L4.24989 6.20728L3.35339 7.10379C3.25909 7.19486 3.13279 7.24526 3.00169 7.24412C2.87059 7.24298 2.74519 7.1904 2.65248 7.09769C2.55978 7.00499 2.5072 6.87958 2.50606 6.74849C2.50492 6.61739 2.55531 6.49109 2.64639 6.39679L3.54289 5.50029L2.64639 4.60378C2.55266 4.51002 2.5 4.38287 2.5 4.25029C2.5 4.1177 2.55266 3.99055 2.64639 3.89679ZM8.14639 3.89679C8.24016 3.80305 8.36731 3.75039 8.49989 3.75039C8.63248 3.75039 8.75963 3.80305 8.85339 3.89679L9.74989 4.79329L10.6464 3.89679C10.6925 3.84903 10.7477 3.81094 10.8087 3.78473C10.8697 3.75853 10.9353 3.74474 11.0017 3.74416C11.0681 3.74358 11.1339 3.75623 11.1954 3.78137C11.2568 3.80651 11.3126 3.84364 11.3596 3.89059C11.4065 3.93753 11.4437 3.99336 11.4688 4.05481C11.4939 4.11626 11.5066 4.1821 11.506 4.24849C11.5054 4.31488 11.4916 4.38049 11.4654 4.44149C11.4392 4.50249 11.4011 4.55766 11.3534 4.60378L10.4569 5.50029L11.3534 6.39679C11.4445 6.49109 11.4949 6.61739 11.4937 6.74849C11.4926 6.87958 11.44 7.00499 11.3473 7.09769C11.2546 7.1904 11.1292 7.24298 10.9981 7.24412C10.867 7.24526 10.7407 7.19486 10.6464 7.10379L9.74989 6.20728L8.85339 7.10379C8.75909 7.19486 8.63279 7.24526 8.50169 7.24412C8.37059 7.24298 8.24519 7.1904 8.15248 7.09769C8.05978 7.00499 8.00719 6.87958 8.00606 6.74849C8.00492 6.61739 8.05531 6.49109 8.14639 6.39679L9.04289 5.50029L8.14639 4.60378C8.05266 4.51002 8 4.38287 8 4.25029C8 4.1177 8.05266 3.99055 8.14639 3.89679Z" fill="#B56318"/>
</g>
<path d="M5.5 4L3 6.5" stroke="url(#paint8_linear_226_9156)" stroke-width="1.5" stroke-linecap="round"/>
<path d="M3 4L5.5 6.5" stroke="url(#paint9_linear_226_9156)" stroke-width="1.5" stroke-linecap="round"/>
<path d="M11 4L8.5 6.5" stroke="url(#paint10_linear_226_9156)" stroke-width="1.5" stroke-linecap="round"/>
<path d="M8.5 4L11 6.5" stroke="url(#paint11_linear_226_9156)" stroke-width="1.5" stroke-linecap="round"/>
<path d="M9 10.5C9 9.39543 8.10457 8.5 7 8.5C5.89543 8.5 5 9.39543 5 10.5C5 11.6046 5.89543 12.5 7 12.5C8.10457 12.5 9 11.6046 9 10.5Z" fill="url(#paint12_radial_226_9156)"/>
<defs>
<filter id="filter0_f_226_9156" x="1.75" y="2.99414" width="10.5059" height="5" filterUnits="userSpaceOnUse" color-interpolation-filters="sRGB">
<feFlood flood-opacity="0" result="BackgroundImageFix"/>
<feBlend mode="normal" in="SourceGraphic" in2="BackgroundImageFix" result="shape"/>
<feGaussianBlur stdDeviation="0.375" result="effect1_foregroundBlur_226_9156"/>
</filter>
<radialGradient id="paint0_radial_226_9156" cx="0" cy="0" r="1" gradientUnits="userSpaceOnUse" gradientTransform="translate(11.7501 3.49979) rotate(132.839) scale(18.7516)">
<stop stop-color="#FFF478"/>
<stop offset="0.475" stop-color="#FFB02E"/>
<stop offset="1" stop-color="#F70A8D"/>
</radialGradient>
<radialGradient id="paint1_radial_226_9156" cx="0" cy="0" r="1" gradientUnits="userSpaceOnUse" gradientTransform="translate(11.7494 3.50032) rotate(131.878) scale(19.4743)">
<stop stop-color="#FFF478"/>
<stop offset="0.475" stop-color="#FFB02E"/>
<stop offset="1" stop-color="#F70A8D"/>
</radialGradient>
<radialGradient id="paint2_radial_226_9156" cx="0" cy="0" r="1" gradientUnits="userSpaceOnUse" gradientTransform="translate(6.99965 5.24986) rotate(101.31) scale(8.9233 11.429)">
<stop offset="0.788" stop-color="#F59639" stop-opacity="0"/>
<stop offset="0.973" stop-color="#FF7DCE"/>
</radialGradient>
<radialGradient id="paint3_radial_226_9156" cx="0" cy="0" r="1" gradientUnits="userSpaceOnUse" gradientTransform="translate(8 6) rotate(135) scale(20.5061)">
<stop offset="0.315" stop-opacity="0"/>
<stop offset="1"/>
</radialGradient>
<radialGradient id="paint4_radial_226_9156" cx="0" cy="0" r="1" gradientUnits="userSpaceOnUse" gradientTransform="translate(6.99998 7.50038) rotate(77.692) scale(14.0734)">
<stop offset="0.508" stop-color="#7D6133" stop-opacity="0"/>
<stop offset="1" stop-color="#715B32"/>
</radialGradient>
<radialGradient id="paint5_radial_226_9156" cx="0" cy="0" r="1" gradientUnits="userSpaceOnUse" gradientTransform="translate(7.25 7.25) rotate(55.713) scale(6.65675 4.82516)">
<stop stop-color="#FFB849"/>
<stop offset="1" stop-color="#FFB847" stop-opacity="0"/>
</radialGradient>
<radialGradient id="paint6_radial_226_9156" cx="0" cy="0" r="1" gradientUnits="userSpaceOnUse" gradientTransform="translate(9.25 8) rotate(9.86582) scale(5.8363)">
<stop stop-color="#FFA64B"/>
<stop offset="0.9" stop-color="#FFAE46" stop-opacity="0"/>
</radialGradient>
<radialGradient id="paint7_radial_226_9156" cx="0" cy="0" r="1" gradientUnits="userSpaceOnUse" gradientTransform="translate(7.75003 6.50014) rotate(43.971) scale(29.5264)">
<stop offset="0.185" stop-opacity="0"/>
<stop offset="1" stop-opacity="0.4"/>
</radialGradient>
<linearGradient id="paint8_linear_226_9156" x1="4.75" y1="5.75" x2="3.75" y2="4.75" gradientUnits="userSpaceOnUse">
<stop stop-color="#4F3C43"/>
<stop offset="0.326" stop-color="#52394E"/>
<stop offset="1" stop-color="#422E2B"/>
</linearGradient>
<linearGradient id="paint9_linear_226_9156" x1="5.5" y1="5.25" x2="4.5" y2="6.25" gradientUnits="userSpaceOnUse">
<stop stop-color="#45253E"/>
<stop offset="0.414" stop-color="#55424C"/>
<stop offset="1" stop-color="#512756"/>
</linearGradient>
<linearGradient id="paint10_linear_226_9156" x1="10.25" y1="5.75" x2="9.25" y2="4.75" gradientUnits="userSpaceOnUse">
<stop stop-color="#4F3C43"/>
<stop offset="0.326" stop-color="#52394E"/>
<stop offset="1" stop-color="#422E2B"/>
</linearGradient>
<linearGradient id="paint11_linear_226_9156" x1="11" y1="5.25" x2="10" y2="6.25" gradientUnits="userSpaceOnUse">
<stop stop-color="#45253E"/>
<stop offset="0.414" stop-color="#55424C"/>
<stop offset="1" stop-color="#512756"/>
</linearGradient>
<radialGradient id="paint12_radial_226_9156" cx="0" cy="0" r="1" gradientUnits="userSpaceOnUse" gradientTransform="translate(7 13.389) rotate(-90) scale(4.88889)">
<stop stop-color="#F70A8D"/>
<stop offset="1" stop-color="#89029C"/>
</radialGradient>
</defs>
</svg>
