<svg width="14" height="14" viewBox="0 0 14 14" fill="none" xmlns="http://www.w3.org/2000/svg">
<path d="M6.9995 13.999C11.6665 13.999 13.999 10.865 13.999 6.999C13.999 3.134 11.6665 0 6.999 0C2.3325 0 0 3.134 0 6.9995C0 10.865 2.332 13.999 6.9995 13.999Z" fill="url(#paint0_radial_226_9140)"/>
<path d="M6.9995 13.999C11.6665 13.999 13.999 10.865 13.999 6.999C13.999 3.134 11.6665 0 6.999 0C2.3325 0 0 3.134 0 6.9995C0 10.865 2.332 13.999 6.9995 13.999Z" fill="url(#paint1_radial_226_9140)"/>
<path d="M6.9995 13.999C11.6665 13.999 13.999 10.865 13.999 6.999C13.999 3.134 11.6665 0 6.999 0C2.3325 0 0 3.134 0 6.9995C0 10.865 2.332 13.999 6.9995 13.999Z" fill="url(#paint2_radial_226_9140)"/>
<path d="M6.9995 13.999C11.6665 13.999 13.999 10.865 13.999 6.999C13.999 3.134 11.6665 0 6.999 0C2.3325 0 0 3.134 0 6.9995C0 10.865 2.332 13.999 6.9995 13.999Z" fill="url(#paint3_radial_226_9140)" fill-opacity="0.6"/>
<path d="M6.9995 13.999C11.6665 13.999 13.999 10.865 13.999 6.999C13.999 3.134 11.6665 0 6.999 0C2.3325 0 0 3.134 0 6.9995C0 10.865 2.332 13.999 6.9995 13.999Z" fill="url(#paint4_radial_226_9140)"/>
<path d="M6.9995 13.999C11.6665 13.999 13.999 10.865 13.999 6.999C13.999 3.134 11.6665 0 6.999 0C2.3325 0 0 3.134 0 6.9995C0 10.865 2.332 13.999 6.9995 13.999Z" fill="url(#paint5_radial_226_9140)"/>
<path d="M6.9995 13.999C11.6665 13.999 13.999 10.865 13.999 6.999C13.999 3.134 11.6665 0 6.999 0C2.3325 0 0 3.134 0 6.9995C0 10.865 2.332 13.999 6.9995 13.999Z" fill="url(#paint6_radial_226_9140)"/>
<path d="M6.9995 13.999C11.6665 13.999 13.999 10.865 13.999 6.999C13.999 3.134 11.6665 0 6.999 0C2.3325 0 0 3.134 0 6.9995C0 10.865 2.332 13.999 6.9995 13.999Z" fill="url(#paint7_radial_226_9140)"/>
<path d="M3.50838 8.04702C4.79879 8.04702 5.84487 7.00094 5.84487 5.71052C5.84487 4.42011 4.79879 3.37402 3.50838 3.37402C2.21796 3.37402 1.17188 4.42011 1.17188 5.71052C1.17188 7.00094 2.21796 8.04702 3.50838 8.04702Z" fill="url(#paint8_radial_226_9140)"/>
<path d="M8.622 8.09361C9.79395 8.09361 10.744 7.14356 10.744 5.97161C10.744 4.79966 9.79395 3.84961 8.622 3.84961C7.45005 3.84961 6.5 4.79966 6.5 5.97161C6.5 7.14356 7.45005 8.09361 8.622 8.09361Z" fill="url(#paint9_radial_226_9140)"/>
<path d="M4.21022 7.11225C4.48909 7.11655 4.76602 7.06534 5.02491 6.9616C5.2838 6.85785 5.51946 6.70365 5.71819 6.50797C5.91691 6.31228 6.07473 6.07902 6.18245 5.82177C6.29017 5.56451 6.34565 5.2884 6.34565 5.0095C6.34565 4.7306 6.29017 4.45449 6.18245 4.19723C6.07473 3.93998 5.91691 3.70672 5.71819 3.51103C5.51946 3.31535 5.2838 3.16115 5.02491 3.0574C4.76602 2.95366 4.48909 2.90245 4.21022 2.90675C3.65815 2.91526 3.13158 3.14055 2.74418 3.53396C2.35679 3.92738 2.13965 4.45737 2.13965 5.0095C2.13965 5.56163 2.35679 6.09162 2.74418 6.48504C3.13158 6.87845 3.65815 7.10374 4.21022 7.11225ZM9.78422 7.15075C10.3471 7.15075 10.8869 6.92716 11.2849 6.52916C11.6829 6.13116 11.9065 5.59136 11.9065 5.0285C11.9065 4.46564 11.6829 3.92584 11.2849 3.52784C10.8869 3.12984 10.3471 2.90625 9.78422 2.90625C9.2213 2.90625 8.68143 3.12987 8.28339 3.52792C7.88534 3.92596 7.66172 4.46583 7.66172 5.02875C7.66172 5.59167 7.88534 6.13154 8.28339 6.52958C8.68143 6.92763 9.2213 7.15075 9.78422 7.15075Z" fill="white"/>
<path d="M4.5 6.5C4.89782 6.5 5.27936 6.34196 5.56066 6.06066C5.84196 5.77936 6 5.39782 6 5C6 4.60218 5.84196 4.22064 5.56066 3.93934C5.27936 3.65804 4.89782 3.5 4.5 3.5C4.10218 3.5 3.72064 3.65804 3.43934 3.93934C3.15804 4.22064 3 4.60218 3 5C3 5.39782 3.15804 5.77936 3.43934 6.06066C3.72064 6.34196 4.10218 6.5 4.5 6.5Z" fill="url(#paint10_linear_226_9140)"/>
<path d="M9.5 6.5C9.89782 6.5 10.2794 6.34196 10.5607 6.06066C10.842 5.77936 11 5.39782 11 5C11 4.60218 10.842 4.22064 10.5607 3.93934C10.2794 3.65804 9.89782 3.5 9.5 3.5C9.10218 3.5 8.72064 3.65804 8.43934 3.93934C8.15804 4.22064 8 4.60218 8 5C8 5.39782 8.15804 5.77936 8.43934 6.06066C8.72064 6.34196 9.10218 6.5 9.5 6.5Z" fill="url(#paint11_linear_226_9140)"/>
<path fill-rule="evenodd" clip-rule="evenodd" d="M4 9C4 8.86739 4.05268 8.74021 4.14645 8.64645C4.24021 8.55268 4.36739 8.5 4.5 8.5H9.5C9.63261 8.5 9.75979 8.55268 9.85355 8.64645C9.94732 8.74021 10 8.86739 10 9C10 9.13261 9.94732 9.25979 9.85355 9.35355C9.75979 9.44732 9.63261 9.5 9.5 9.5H4.5C4.36739 9.5 4.24021 9.44732 4.14645 9.35355C4.05268 9.25979 4 9.13261 4 9Z" fill="url(#paint12_linear_226_9140)"/>
<defs>
<radialGradient id="paint0_radial_226_9140" cx="0" cy="0" r="1" gradientUnits="userSpaceOnUse" gradientTransform="translate(11.7501 3.49979) rotate(132.839) scale(18.7516)">
<stop stop-color="#FFF478"/>
<stop offset="0.475" stop-color="#FFB02E"/>
<stop offset="1" stop-color="#F70A8D"/>
</radialGradient>
<radialGradient id="paint1_radial_226_9140" cx="0" cy="0" r="1" gradientUnits="userSpaceOnUse" gradientTransform="translate(11.7494 3.50032) rotate(131.878) scale(19.4743)">
<stop stop-color="#FFF478"/>
<stop offset="0.475" stop-color="#FFB02E"/>
<stop offset="1" stop-color="#F70A8D"/>
</radialGradient>
<radialGradient id="paint2_radial_226_9140" cx="0" cy="0" r="1" gradientUnits="userSpaceOnUse" gradientTransform="translate(6.99965 5.24986) rotate(101.31) scale(8.9233 11.429)">
<stop offset="0.788" stop-color="#F59639" stop-opacity="0"/>
<stop offset="0.973" stop-color="#FF7DCE"/>
</radialGradient>
<radialGradient id="paint3_radial_226_9140" cx="0" cy="0" r="1" gradientUnits="userSpaceOnUse" gradientTransform="translate(8 6) rotate(135) scale(20.5061)">
<stop offset="0.315" stop-opacity="0"/>
<stop offset="1"/>
</radialGradient>
<radialGradient id="paint4_radial_226_9140" cx="0" cy="0" r="1" gradientUnits="userSpaceOnUse" gradientTransform="translate(6.99998 7.50038) rotate(77.692) scale(14.0734)">
<stop offset="0.508" stop-color="#7D6133" stop-opacity="0"/>
<stop offset="1" stop-color="#715B32"/>
</radialGradient>
<radialGradient id="paint5_radial_226_9140" cx="0" cy="0" r="1" gradientUnits="userSpaceOnUse" gradientTransform="translate(7.25 7.25) rotate(55.713) scale(6.65675 4.82516)">
<stop stop-color="#FFB849"/>
<stop offset="1" stop-color="#FFB847" stop-opacity="0"/>
</radialGradient>
<radialGradient id="paint6_radial_226_9140" cx="0" cy="0" r="1" gradientUnits="userSpaceOnUse" gradientTransform="translate(9.25 8) rotate(9.86582) scale(5.8363)">
<stop stop-color="#FFA64B"/>
<stop offset="0.9" stop-color="#FFAE46" stop-opacity="0"/>
</radialGradient>
<radialGradient id="paint7_radial_226_9140" cx="0" cy="0" r="1" gradientUnits="userSpaceOnUse" gradientTransform="translate(7.75003 6.50014) rotate(43.971) scale(29.5264)">
<stop offset="0.185" stop-opacity="0"/>
<stop offset="1" stop-opacity="0.4"/>
</radialGradient>
<radialGradient id="paint8_radial_226_9140" cx="0" cy="0" r="1" gradientUnits="userSpaceOnUse" gradientTransform="translate(5.3264 3.89249) rotate(135) scale(4.55289 2.35642)">
<stop stop-color="#392108"/>
<stop offset="1" stop-color="#C87928" stop-opacity="0"/>
</radialGradient>
<radialGradient id="paint9_radial_226_9140" cx="0" cy="0" r="1" gradientUnits="userSpaceOnUse" gradientTransform="translate(10.2729 4.32073) rotate(135) scale(3.83484 2.16483)">
<stop stop-color="#392108"/>
<stop offset="1" stop-color="#C87928" stop-opacity="0"/>
</radialGradient>
<linearGradient id="paint10_linear_226_9140" x1="7.25" y1="3" x2="6.75" y2="6.5" gradientUnits="userSpaceOnUse">
<stop stop-color="#553B3E"/>
<stop offset="1" stop-color="#3D2432"/>
</linearGradient>
<linearGradient id="paint11_linear_226_9140" x1="7.25" y1="3" x2="6.75" y2="6.5" gradientUnits="userSpaceOnUse">
<stop stop-color="#553B3E"/>
<stop offset="1" stop-color="#3D2432"/>
</linearGradient>
<linearGradient id="paint12_linear_226_9140" x1="7" y1="8.75" x2="7" y2="9.25" gradientUnits="userSpaceOnUse">
<stop stop-color="#4F3C43"/>
<stop offset="1" stop-color="#512756"/>
</linearGradient>
</defs>
</svg>
