<svg width="14" height="14" viewBox="0 0 14 14" fill="none" xmlns="http://www.w3.org/2000/svg">
<path d="M6.9995 13.999C11.6665 13.999 13.999 10.865 13.999 6.999C13.999 3.134 11.6665 0 6.999 0C2.3325 0 0 3.134 0 6.9995C0 10.865 2.332 13.999 6.9995 13.999Z" fill="url(#paint0_radial_226_9024)"/>
<path d="M6.9995 13.999C11.6665 13.999 13.999 10.865 13.999 6.999C13.999 3.134 11.6665 0 6.999 0C2.3325 0 0 3.134 0 6.9995C0 10.865 2.332 13.999 6.9995 13.999Z" fill="url(#paint1_radial_226_9024)"/>
<path d="M6.9995 13.999C11.6665 13.999 13.999 10.865 13.999 6.999C13.999 3.134 11.6665 0 6.999 0C2.3325 0 0 3.134 0 6.9995C0 10.865 2.332 13.999 6.9995 13.999Z" fill="url(#paint2_radial_226_9024)"/>
<path d="M6.9995 13.999C11.6665 13.999 13.999 10.865 13.999 6.999C13.999 3.134 11.6665 0 6.999 0C2.3325 0 0 3.134 0 6.9995C0 10.865 2.332 13.999 6.9995 13.999Z" fill="url(#paint3_radial_226_9024)" fill-opacity="0.6"/>
<path d="M6.9995 13.999C11.6665 13.999 13.999 10.865 13.999 6.999C13.999 3.134 11.6665 0 6.999 0C2.3325 0 0 3.134 0 6.9995C0 10.865 2.332 13.999 6.9995 13.999Z" fill="url(#paint4_radial_226_9024)"/>
<path d="M6.9995 13.999C11.6665 13.999 13.999 10.865 13.999 6.999C13.999 3.134 11.6665 0 6.999 0C2.3325 0 0 3.134 0 6.9995C0 10.865 2.332 13.999 6.9995 13.999Z" fill="url(#paint5_radial_226_9024)"/>
<path d="M6.9995 13.999C11.6665 13.999 13.999 10.865 13.999 6.999C13.999 3.134 11.6665 0 6.999 0C2.3325 0 0 3.134 0 6.9995C0 10.865 2.332 13.999 6.9995 13.999Z" fill="url(#paint6_radial_226_9024)"/>
<path d="M6.9995 13.999C11.6665 13.999 13.999 10.865 13.999 6.999C13.999 3.134 11.6665 0 6.999 0C2.3325 0 0 3.134 0 6.9995C0 10.865 2.332 13.999 6.9995 13.999Z" fill="url(#paint7_radial_226_9024)"/>
<path d="M7 12C2 12 2 7 2 7H12C12 7 12 12 7 12Z" fill="url(#paint8_radial_226_9024)"/>
<path d="M10.75 7.75H3.25C3.05109 7.75 2.86032 7.67098 2.71967 7.53033C2.57902 7.38968 2.5 7.19891 2.5 7H11.5C11.5 7.19891 11.421 7.38968 11.2803 7.53033C11.1397 7.67098 10.9489 7.75 10.75 7.75Z" fill="url(#paint9_linear_226_9024)"/>
<g filter="url(#filter0_f_226_9024)">
<path d="M3.72371 6.16427C3.66494 6.19362 3.60097 6.21111 3.53544 6.21574C3.46992 6.22037 3.40412 6.21204 3.34182 6.19124C3.27951 6.17044 3.22191 6.13757 3.1723 6.09451C3.1227 6.05145 3.08206 5.99904 3.05271 5.94027C3.02336 5.88151 3.00587 5.81753 3.00124 5.75201C2.99662 5.68648 3.00494 5.62069 3.02574 5.55838C3.04654 5.49607 3.07941 5.43847 3.12247 5.38887C3.16553 5.33926 3.21794 5.29862 3.27671 5.26927L4.37971 4.71777H6.00021C6.00007 4.81052 5.97413 4.9014 5.9253 4.98025C5.87647 5.0591 5.80667 5.12282 5.72371 5.16427L3.72371 6.16427Z" fill="url(#paint10_radial_226_9024)" fill-opacity="0.6"/>
<path d="M3.72371 3.27146C3.66494 3.24211 3.60097 3.22462 3.53544 3.21999C3.46992 3.21537 3.40412 3.22369 3.34182 3.24449C3.27951 3.26529 3.22191 3.29816 3.1723 3.34122C3.1227 3.38428 3.08206 3.43669 3.05271 3.49546C3.02336 3.55423 3.00587 3.6182 3.00124 3.68372C2.99662 3.74925 3.00494 3.81504 3.02574 3.87735C3.04654 3.93966 3.07941 3.99726 3.12247 4.04686C3.16553 4.09647 3.21794 4.13711 3.27671 4.16646L4.37971 4.71746H6.00021C5.99997 4.6248 5.97399 4.53402 5.92517 4.45527C5.87635 4.37652 5.8066 4.31288 5.72371 4.27146L3.72371 3.27146Z" fill="url(#paint11_radial_226_9024)" fill-opacity="0.6"/>
</g>
<path d="M3.72308 5.94502C3.66428 5.97498 3.60014 5.993 3.53434 5.99805C3.46855 6.0031 3.4024 5.99507 3.33972 5.97443C3.27704 5.9538 3.21907 5.92096 3.16915 5.87781C3.11922 5.83466 3.07833 5.78205 3.04883 5.72302C3.01933 5.66399 3.00181 5.59971 2.99728 5.53388C2.99274 5.46804 3.00128 5.40196 3.02241 5.33945C3.04353 5.27693 3.07682 5.21922 3.12036 5.16963C3.1639 5.12004 3.21682 5.07956 3.27608 5.05052L4.37908 4.49902H5.99958C5.99934 4.59168 5.97337 4.68246 5.92454 4.76121C5.87572 4.83997 5.80597 4.9036 5.72308 4.94502L3.72308 5.94502Z" fill="url(#paint12_linear_226_9024)"/>
<path d="M3.72392 3.05296C3.60545 2.99491 3.46883 2.98603 3.34384 3.02827C3.21885 3.0705 3.11562 3.16043 3.05664 3.27845C2.99767 3.39646 2.98773 3.53301 3.02899 3.65832C3.07025 3.78364 3.15937 3.88757 3.27692 3.94746L4.37992 4.49896H6.00042C6.00019 4.4063 5.97421 4.31553 5.92538 4.23677C5.87656 4.15802 5.80681 4.09438 5.72392 4.05296L3.72392 3.05296Z" fill="url(#paint13_linear_226_9024)"/>
<g filter="url(#filter1_f_226_9024)">
<path d="M9.97913 6.16427C10.0379 6.19366 10.1019 6.21118 10.1674 6.21583C10.2329 6.22049 10.2988 6.2122 10.3611 6.19142C10.4234 6.17064 10.481 6.13779 10.5307 6.09474C10.5803 6.05169 10.621 5.99929 10.6504 5.94052C10.6798 5.88176 10.6973 5.81778 10.7019 5.75224C10.7066 5.6867 10.6983 5.62089 10.6775 5.55856C10.6567 5.49623 10.6239 5.4386 10.5808 5.38896C10.5378 5.33933 10.4854 5.29866 10.4266 5.26927L9.32312 4.71777H7.70312C7.70322 4.81047 7.72908 4.90131 7.77782 4.98015C7.82656 5.059 7.89625 5.12275 7.97913 5.16427L9.97913 6.16427Z" fill="url(#paint14_radial_226_9024)"/>
<path d="M9.97913 3.27157C10.0379 3.24219 10.1019 3.22467 10.1674 3.22001C10.2329 3.21535 10.2988 3.22365 10.3611 3.24443C10.4234 3.2652 10.481 3.29805 10.5307 3.3411C10.5803 3.38415 10.621 3.43655 10.6504 3.49532C10.6798 3.55409 10.6973 3.61807 10.7019 3.6836C10.7066 3.74914 10.6983 3.81495 10.6775 3.87729C10.6567 3.93962 10.6239 3.99725 10.5808 4.04688C10.5378 4.09652 10.4854 4.13719 10.4266 4.16657L9.32312 4.71757H7.70312C7.70331 4.62496 7.72922 4.53423 7.77795 4.45548C7.82668 4.37673 7.89633 4.31306 7.97913 4.27157L9.97913 3.27157Z" fill="url(#paint15_radial_226_9024)"/>
</g>
<path d="M10.2682 5.94502C10.3269 5.97441 10.3909 5.99193 10.4564 5.9966C10.5219 6.00127 10.5877 5.993 10.65 5.97224C10.7123 5.95149 10.7699 5.91866 10.8195 5.87565C10.8691 5.83263 10.9098 5.78026 10.9392 5.72152C10.9686 5.66279 10.9861 5.59884 10.9908 5.53334C10.9954 5.46783 10.9872 5.40204 10.9664 5.33974C10.9457 5.27743 10.9128 5.21982 10.8698 5.17019C10.8268 5.12057 10.7744 5.07991 10.7157 5.05052L9.61219 4.49902H7.99219C7.99238 4.59163 8.01828 4.68237 8.06701 4.76112C8.11575 4.83987 8.18539 4.90354 8.26819 4.94502L10.2682 5.94502Z" fill="url(#paint16_linear_226_9024)"/>
<path d="M10.2682 3.05285C10.3269 3.02346 10.3909 3.00594 10.4564 3.00127C10.5219 2.9966 10.5877 3.00487 10.65 3.02563C10.7123 3.04638 10.7699 3.07921 10.8195 3.12222C10.8691 3.16524 10.9098 3.21761 10.9392 3.27635C10.9686 3.33508 10.9861 3.39903 10.9908 3.46453C10.9954 3.53004 10.9872 3.59583 10.9664 3.65814C10.9457 3.72044 10.9128 3.77805 10.8698 3.82768C10.8268 3.8773 10.7744 3.91796 10.7157 3.94735L9.61219 4.49885H7.99219C7.99238 4.40624 8.01828 4.3155 8.06701 4.23675C8.11575 4.158 8.18539 4.09434 8.26819 4.05285L10.2682 3.05285Z" fill="url(#paint17_linear_226_9024)"/>
<defs>
<filter id="filter0_f_226_9024" x="2.625" y="2.84375" width="3.75" height="3.74805" filterUnits="userSpaceOnUse" color-interpolation-filters="sRGB">
<feFlood flood-opacity="0" result="BackgroundImageFix"/>
<feBlend mode="normal" in="SourceGraphic" in2="BackgroundImageFix" result="shape"/>
<feGaussianBlur stdDeviation="0.1875" result="effect1_foregroundBlur_226_9024"/>
</filter>
<filter id="filter1_f_226_9024" x="7.32812" y="2.84375" width="3.75" height="3.74805" filterUnits="userSpaceOnUse" color-interpolation-filters="sRGB">
<feFlood flood-opacity="0" result="BackgroundImageFix"/>
<feBlend mode="normal" in="SourceGraphic" in2="BackgroundImageFix" result="shape"/>
<feGaussianBlur stdDeviation="0.1875" result="effect1_foregroundBlur_226_9024"/>
</filter>
<radialGradient id="paint0_radial_226_9024" cx="0" cy="0" r="1" gradientUnits="userSpaceOnUse" gradientTransform="translate(11.7501 3.49979) rotate(132.839) scale(18.7516)">
<stop stop-color="#FFF478"/>
<stop offset="0.475" stop-color="#FFB02E"/>
<stop offset="1" stop-color="#F70A8D"/>
</radialGradient>
<radialGradient id="paint1_radial_226_9024" cx="0" cy="0" r="1" gradientUnits="userSpaceOnUse" gradientTransform="translate(11.7494 3.50032) rotate(131.878) scale(19.4743)">
<stop stop-color="#FFF478"/>
<stop offset="0.475" stop-color="#FFB02E"/>
<stop offset="1" stop-color="#F70A8D"/>
</radialGradient>
<radialGradient id="paint2_radial_226_9024" cx="0" cy="0" r="1" gradientUnits="userSpaceOnUse" gradientTransform="translate(6.99965 5.24986) rotate(101.31) scale(8.9233 11.429)">
<stop offset="0.788" stop-color="#F59639" stop-opacity="0"/>
<stop offset="0.973" stop-color="#FF7DCE"/>
</radialGradient>
<radialGradient id="paint3_radial_226_9024" cx="0" cy="0" r="1" gradientUnits="userSpaceOnUse" gradientTransform="translate(8 6) rotate(135) scale(20.5061)">
<stop offset="0.315" stop-opacity="0"/>
<stop offset="1"/>
</radialGradient>
<radialGradient id="paint4_radial_226_9024" cx="0" cy="0" r="1" gradientUnits="userSpaceOnUse" gradientTransform="translate(6.99998 7.50038) rotate(77.692) scale(14.0734)">
<stop offset="0.508" stop-color="#7D6133" stop-opacity="0"/>
<stop offset="1" stop-color="#715B32"/>
</radialGradient>
<radialGradient id="paint5_radial_226_9024" cx="0" cy="0" r="1" gradientUnits="userSpaceOnUse" gradientTransform="translate(7.25 7.25) rotate(55.713) scale(6.65675 4.82516)">
<stop stop-color="#FFB849"/>
<stop offset="1" stop-color="#FFB847" stop-opacity="0"/>
</radialGradient>
<radialGradient id="paint6_radial_226_9024" cx="0" cy="0" r="1" gradientUnits="userSpaceOnUse" gradientTransform="translate(9.25 8) rotate(9.86582) scale(5.8363)">
<stop stop-color="#FFA64B"/>
<stop offset="0.9" stop-color="#FFAE46" stop-opacity="0"/>
</radialGradient>
<radialGradient id="paint7_radial_226_9024" cx="0" cy="0" r="1" gradientUnits="userSpaceOnUse" gradientTransform="translate(7.75003 6.50014) rotate(43.971) scale(29.5264)">
<stop offset="0.185" stop-opacity="0"/>
<stop offset="1" stop-opacity="0.4"/>
</radialGradient>
<radialGradient id="paint8_radial_226_9024" cx="0" cy="0" r="1" gradientUnits="userSpaceOnUse" gradientTransform="translate(7 13.111) rotate(-90) scale(6.1111 12.2222)">
<stop stop-color="#F70A8D"/>
<stop offset="1" stop-color="#89029C"/>
</radialGradient>
<linearGradient id="paint9_linear_226_9024" x1="7" y1="7" x2="7" y2="7.75" gradientUnits="userSpaceOnUse">
<stop stop-color="#ECCDFF"/>
<stop offset="1" stop-color="white"/>
</linearGradient>
<radialGradient id="paint10_radial_226_9024" cx="0" cy="0" r="1" gradientUnits="userSpaceOnUse" gradientTransform="translate(3.89071 3.21927) rotate(110.225) scale(3.79659 4.96214)">
<stop stop-color="#9F5E0F"/>
<stop offset="0.889" stop-color="#9F5E0F" stop-opacity="0"/>
</radialGradient>
<radialGradient id="paint11_radial_226_9024" cx="0" cy="0" r="1" gradientUnits="userSpaceOnUse" gradientTransform="translate(3.89071 3.21896) rotate(110.225) scale(3.79659 4.96214)">
<stop stop-color="#9F5E0F"/>
<stop offset="0.889" stop-color="#9F5E0F" stop-opacity="0"/>
</radialGradient>
<linearGradient id="paint12_linear_226_9024" x1="4.28858" y1="6.36602" x2="2.99958" y2="3.69402" gradientUnits="userSpaceOnUse">
<stop offset="0.25" stop-color="#482641"/>
<stop offset="0.406" stop-color="#503A4A"/>
<stop offset="0.511" stop-color="#482641"/>
</linearGradient>
<linearGradient id="paint13_linear_226_9024" x1="3.43042" y1="4.56946" x2="4.62542" y2="2.22546" gradientUnits="userSpaceOnUse">
<stop offset="0.25" stop-color="#482641"/>
<stop offset="0.406" stop-color="#503A4A"/>
<stop offset="0.511" stop-color="#482641"/>
</linearGradient>
<radialGradient id="paint14_radial_226_9024" cx="0" cy="0" r="1" gradientUnits="userSpaceOnUse" gradientTransform="translate(12.4138 6.71864) rotate(-135.995) scale(6.67985 8.73055)">
<stop stop-color="#E9830A"/>
<stop offset="0.802" stop-color="#F08B13" stop-opacity="0"/>
</radialGradient>
<radialGradient id="paint15_radial_226_9024" cx="0" cy="0" r="1" gradientUnits="userSpaceOnUse" gradientTransform="translate(12.4138 6.71844) rotate(-135.995) scale(6.67985 8.73055)">
<stop stop-color="#E9830A"/>
<stop offset="0.802" stop-color="#F08B13" stop-opacity="0"/>
</radialGradient>
<linearGradient id="paint16_linear_226_9024" x1="9.70269" y1="6.36602" x2="10.9922" y2="3.69402" gradientUnits="userSpaceOnUse">
<stop offset="0.25" stop-color="#482641"/>
<stop offset="0.406" stop-color="#503A4A"/>
<stop offset="0.511" stop-color="#482641"/>
</linearGradient>
<linearGradient id="paint17_linear_226_9024" x1="10.5622" y1="4.56935" x2="9.36669" y2="2.22535" gradientUnits="userSpaceOnUse">
<stop offset="0.25" stop-color="#482641"/>
<stop offset="0.406" stop-color="#503A4A"/>
<stop offset="0.511" stop-color="#482641"/>
</linearGradient>
</defs>
</svg>
